<svg width="1089" height="669" viewBox="0 0 1089 669" fill="none" xmlns="http://www.w3.org/2000/svg">
<g filter="url(#filter0_bd_6_420)">
<rect x="348" y="500" width="419" height="147" rx="16" fill="url(#paint0_linear_6_420)" shape-rendering="crispEdges"/>
<rect x="348.5" y="500.5" width="418" height="146" rx="15.5" stroke="#F0F0F0" stroke-opacity="0.2" shape-rendering="crispEdges"/>
<path d="M518.142 564V539.273H528.863C530.747 539.273 532.328 539.526 533.608 540.033C534.896 540.54 535.866 541.257 536.518 542.183C537.178 543.108 537.508 544.199 537.508 545.455C537.508 546.364 537.307 547.193 536.904 547.942C536.51 548.69 535.955 549.318 535.238 549.825C534.522 550.324 533.685 550.67 532.727 550.864V551.105C533.789 551.145 534.755 551.415 535.625 551.914C536.494 552.405 537.186 553.085 537.701 553.955C538.216 554.816 538.474 555.83 538.474 556.997C538.474 558.349 538.12 559.553 537.411 560.607C536.711 561.662 535.713 562.491 534.417 563.094C533.121 563.698 531.576 564 529.781 564H518.142ZM524.855 558.639H527.994C529.121 558.639 529.966 558.43 530.529 558.011C531.093 557.585 531.375 556.957 531.375 556.128C531.375 555.548 531.242 555.057 530.976 554.655C530.71 554.252 530.332 553.946 529.841 553.737C529.358 553.528 528.775 553.423 528.09 553.423H524.855V558.639ZM524.855 549.27H527.608C528.195 549.27 528.714 549.177 529.165 548.992C529.616 548.807 529.966 548.541 530.215 548.195C530.473 547.841 530.602 547.411 530.602 546.903C530.602 546.139 530.328 545.555 529.781 545.153C529.233 544.742 528.541 544.537 527.704 544.537H524.855V549.27ZM546.117 564.29C544.934 564.29 543.887 564.097 542.978 563.71C542.076 563.316 541.368 562.72 540.853 561.923C540.337 561.126 540.08 560.112 540.08 558.881C540.08 557.866 540.253 557.001 540.599 556.285C540.945 555.56 541.428 554.969 542.048 554.51C542.668 554.051 543.388 553.701 544.209 553.46C545.038 553.218 545.932 553.061 546.889 552.989C547.928 552.908 548.761 552.812 549.389 552.699C550.025 552.578 550.483 552.413 550.765 552.204C551.047 551.987 551.188 551.701 551.188 551.347V551.298C551.188 550.815 551.003 550.445 550.632 550.188C550.262 549.93 549.787 549.801 549.208 549.801C548.572 549.801 548.053 549.942 547.65 550.224C547.256 550.497 547.018 550.92 546.938 551.491H540.804C540.885 550.365 541.243 549.326 541.879 548.376C542.523 547.419 543.46 546.654 544.692 546.082C545.924 545.503 547.461 545.213 549.304 545.213C550.632 545.213 551.824 545.37 552.878 545.684C553.933 545.99 554.83 546.42 555.571 546.976C556.311 547.523 556.875 548.167 557.261 548.908C557.655 549.64 557.853 550.437 557.853 551.298V564H551.622V561.392H551.478C551.107 562.084 550.657 562.644 550.125 563.07C549.602 563.497 549.002 563.807 548.326 564C547.658 564.193 546.922 564.29 546.117 564.29ZM548.29 560.088C548.797 560.088 549.272 559.983 549.715 559.774C550.166 559.565 550.532 559.263 550.813 558.869C551.095 558.474 551.236 557.995 551.236 557.432V555.886C551.059 555.959 550.87 556.027 550.669 556.092C550.475 556.156 550.266 556.216 550.041 556.273C549.823 556.329 549.59 556.381 549.34 556.43C549.099 556.478 548.845 556.522 548.58 556.562C548.065 556.643 547.642 556.776 547.312 556.961C546.99 557.138 546.749 557.359 546.588 557.625C546.435 557.883 546.358 558.172 546.358 558.494C546.358 559.009 546.539 559.404 546.902 559.678C547.264 559.951 547.727 560.088 548.29 560.088ZM567.026 559.605L567.074 551.685H567.943L572.435 545.455H579.921L572.386 555.162H570.503L567.026 559.605ZM561.037 564V539.273H567.702V564H561.037ZM572.483 564L568.233 556.659L572.58 551.926L580.114 564H572.483ZM589.827 564.338C587.815 564.338 586.092 563.94 584.66 563.143C583.227 562.338 582.128 561.219 581.363 559.786C580.599 558.345 580.216 556.675 580.216 554.776C580.216 552.876 580.599 551.21 581.363 549.777C582.128 548.336 583.227 547.217 584.66 546.42C586.092 545.616 587.815 545.213 589.827 545.213C591.839 545.213 593.562 545.616 594.995 546.42C596.428 547.217 597.526 548.336 598.291 549.777C599.056 551.21 599.438 552.876 599.438 554.776C599.438 556.675 599.056 558.345 598.291 559.786C597.526 561.219 596.428 562.338 594.995 563.143C593.562 563.94 591.839 564.338 589.827 564.338ZM589.875 559.412C590.439 559.412 590.926 559.223 591.336 558.844C591.747 558.466 592.065 557.927 592.29 557.227C592.516 556.526 592.628 555.693 592.628 554.727C592.628 553.753 592.516 552.92 592.29 552.228C592.065 551.528 591.747 550.988 591.336 550.61C590.926 550.232 590.439 550.043 589.875 550.043C589.28 550.043 588.769 550.232 588.342 550.61C587.915 550.988 587.589 551.528 587.364 552.228C587.139 552.92 587.026 553.753 587.026 554.727C587.026 555.693 587.139 556.526 587.364 557.227C587.589 557.927 587.915 558.466 588.342 558.844C588.769 559.223 589.28 559.412 589.875 559.412Z" fill="#FFC010"/>
<path d="M502.465 584.273V609H497.986V584.273H502.465ZM514.005 609.326C512.548 609.326 511.244 608.952 510.093 608.203C508.942 607.455 508.032 606.368 507.364 604.943C506.696 603.518 506.362 601.788 506.362 599.751C506.362 597.691 506.7 595.952 507.376 594.536C508.06 593.111 508.982 592.036 510.141 591.312C511.3 590.579 512.592 590.213 514.017 590.213C515.104 590.213 515.997 590.398 516.697 590.768C517.398 591.131 517.953 591.569 518.363 592.085C518.774 592.592 519.092 593.071 519.317 593.521H519.498V584.273H523.881V609H519.583V606.078H519.317C519.092 606.529 518.766 607.008 518.339 607.515C517.913 608.014 517.349 608.441 516.649 608.795C515.949 609.149 515.067 609.326 514.005 609.326ZM515.224 605.74C516.15 605.74 516.939 605.491 517.591 604.991C518.243 604.484 518.738 603.78 519.076 602.879C519.414 601.977 519.583 600.927 519.583 599.727C519.583 598.528 519.414 597.486 519.076 596.6C518.746 595.715 518.255 595.027 517.603 594.536C516.959 594.045 516.166 593.799 515.224 593.799C514.25 593.799 513.437 594.053 512.785 594.56C512.133 595.067 511.642 595.767 511.312 596.661C510.982 597.554 510.817 598.576 510.817 599.727C510.817 600.886 510.982 601.921 511.312 602.83C511.65 603.732 512.145 604.444 512.797 604.967C513.457 605.482 514.266 605.74 515.224 605.74ZM536.749 609.362C534.89 609.362 533.284 608.976 531.931 608.203C530.587 607.422 529.553 606.32 528.828 604.895C528.104 603.462 527.742 601.776 527.742 599.836C527.742 597.928 528.104 596.254 528.828 594.813C529.561 593.364 530.583 592.237 531.895 591.433C533.207 590.62 534.749 590.213 536.52 590.213C537.663 590.213 538.741 590.398 539.755 590.768C540.778 591.131 541.679 591.694 542.46 592.459C543.249 593.223 543.868 594.197 544.319 595.381C544.77 596.556 544.995 597.956 544.995 599.582V600.923H529.794V597.977H540.806C540.798 597.139 540.617 596.395 540.262 595.743C539.908 595.083 539.413 594.564 538.777 594.185C538.15 593.807 537.417 593.618 536.58 593.618C535.686 593.618 534.902 593.835 534.225 594.27C533.549 594.696 533.022 595.26 532.644 595.96C532.274 596.652 532.084 597.413 532.076 598.242V600.814C532.076 601.893 532.274 602.818 532.668 603.591C533.062 604.356 533.614 604.943 534.322 605.354C535.03 605.756 535.859 605.957 536.809 605.957C537.445 605.957 538.021 605.869 538.536 605.692C539.051 605.507 539.498 605.237 539.876 604.883C540.254 604.529 540.54 604.09 540.733 603.567L544.814 604.026C544.557 605.104 544.066 606.046 543.341 606.851C542.625 607.648 541.707 608.268 540.588 608.71C539.47 609.145 538.19 609.362 536.749 609.362ZM553.064 598.134V609H548.693V590.455H552.871V593.606H553.088C553.515 592.567 554.195 591.742 555.128 591.131C556.07 590.519 557.233 590.213 558.618 590.213C559.898 590.213 561.012 590.487 561.962 591.034C562.92 591.581 563.661 592.374 564.184 593.413C564.715 594.451 564.977 595.711 564.969 597.192V609H560.598V597.868C560.598 596.628 560.276 595.658 559.632 594.958C558.996 594.258 558.115 593.908 556.988 593.908C556.223 593.908 555.543 594.077 554.947 594.415C554.36 594.745 553.897 595.224 553.559 595.852C553.229 596.479 553.064 597.24 553.064 598.134ZM578.672 590.455V593.835H568.011V590.455H578.672ZM570.643 586.011H575.014V603.422C575.014 604.009 575.103 604.46 575.28 604.774C575.465 605.08 575.706 605.289 576.004 605.402C576.302 605.515 576.632 605.571 576.994 605.571C577.268 605.571 577.517 605.551 577.743 605.511C577.976 605.47 578.153 605.434 578.274 605.402L579.01 608.819C578.777 608.899 578.443 608.988 578.008 609.085C577.582 609.181 577.059 609.237 576.439 609.254C575.344 609.286 574.358 609.121 573.481 608.759C572.603 608.388 571.907 607.817 571.392 607.044C570.885 606.271 570.635 605.305 570.643 604.146V586.011ZM582.328 609V590.455H586.699V609H582.328ZM584.525 587.822C583.833 587.822 583.237 587.593 582.738 587.134C582.239 586.667 581.99 586.108 581.99 585.456C581.99 584.796 582.239 584.237 582.738 583.778C583.237 583.311 583.833 583.077 584.525 583.077C585.225 583.077 585.821 583.311 586.312 583.778C586.811 584.237 587.061 584.796 587.061 585.456C587.061 586.108 586.811 586.667 586.312 587.134C585.821 587.593 585.225 587.822 584.525 587.822ZM600.454 590.455V593.835H589.792V590.455H600.454ZM592.425 586.011H596.795V603.422C596.795 604.009 596.884 604.46 597.061 604.774C597.246 605.08 597.488 605.289 597.785 605.402C598.083 605.515 598.413 605.571 598.775 605.571C599.049 605.571 599.299 605.551 599.524 605.511C599.757 605.47 599.934 605.434 600.055 605.402L600.792 608.819C600.558 608.899 600.224 608.988 599.79 609.085C599.363 609.181 598.84 609.237 598.22 609.254C597.125 609.286 596.139 609.121 595.262 608.759C594.385 608.388 593.688 607.817 593.173 607.044C592.666 606.271 592.416 605.305 592.425 604.146V586.011ZM606.826 615.955C606.23 615.955 605.679 615.906 605.172 615.81C604.672 615.721 604.274 615.616 603.976 615.496L604.99 612.091C605.626 612.276 606.194 612.365 606.693 612.357C607.192 612.348 607.631 612.192 608.009 611.886C608.395 611.588 608.721 611.089 608.987 610.388L609.361 609.386L602.636 590.455H607.272L611.547 604.46H611.74L616.026 590.455H620.674L613.249 611.246C612.903 612.228 612.444 613.069 611.873 613.769C611.301 614.478 610.601 615.017 609.772 615.387C608.951 615.765 607.969 615.955 606.826 615.955Z" fill="white"/>
</g>
<g filter="url(#filter1_d_6_420)">
<g filter="url(#filter2_bd_6_420)">
<rect x="17" y="4" width="504" height="177" rx="16" fill="url(#paint1_linear_6_420)" shape-rendering="crispEdges"/>
<rect x="17.5" y="4.5" width="503" height="176" rx="15.5" stroke="#F0F0F0" stroke-opacity="0.2" shape-rendering="crispEdges"/>
<path d="M73.5938 83V58.2727H84.267C86.1023 58.2727 87.7081 58.6068 89.0845 59.2749C90.4609 59.9429 91.5315 60.9048 92.2962 62.1605C93.0608 63.4162 93.4432 64.9214 93.4432 66.6761C93.4432 68.447 93.0488 69.9401 92.2599 71.1555C91.4792 72.371 90.3804 73.2886 88.9638 73.9084C87.5552 74.5282 85.9091 74.8381 84.0256 74.8381H77.6506V69.6222H82.6733C83.4621 69.6222 84.1342 69.5256 84.6896 69.3324C85.2531 69.1312 85.6837 68.8132 85.9815 68.3786C86.2874 67.9439 86.4403 67.3764 86.4403 66.6761C86.4403 65.9678 86.2874 65.3923 85.9815 64.9496C85.6837 64.4988 85.2531 64.1688 84.6896 63.9595C84.1342 63.7422 83.4621 63.6335 82.6733 63.6335H80.3068V83H73.5938ZM88.0824 71.6506L94.2642 83H86.9716L80.9347 71.6506H88.0824ZM104.889 83.3381C102.909 83.3381 101.203 82.9598 99.7699 82.2031C98.3452 81.4384 97.2464 80.3437 96.4737 78.919C95.709 77.4863 95.3267 75.7718 95.3267 73.7756C95.3267 71.8598 95.7131 70.1856 96.4858 68.7528C97.2585 67.3201 98.3492 66.2053 99.7578 65.4084C101.166 64.6115 102.829 64.2131 104.744 64.2131C106.145 64.2131 107.413 64.4304 108.548 64.8651C109.683 65.2997 110.652 65.9316 111.457 66.7607C112.262 67.5817 112.882 68.5798 113.317 69.755C113.751 70.9302 113.969 72.2543 113.969 73.7273V75.2727H97.4034V71.6023H107.835C107.827 71.071 107.69 70.6042 107.425 70.2017C107.167 69.7912 106.817 69.4732 106.374 69.2479C105.94 69.0144 105.445 68.8977 104.889 68.8977C104.35 68.8977 103.855 69.0144 103.404 69.2479C102.953 69.4732 102.591 69.7872 102.317 70.1896C102.052 70.5921 101.911 71.063 101.895 71.6023V75.5625C101.895 76.1581 102.02 76.6894 102.269 77.1562C102.519 77.6231 102.877 77.9893 103.344 78.255C103.811 78.5206 104.374 78.6534 105.034 78.6534C105.493 78.6534 105.911 78.589 106.29 78.4602C106.676 78.3314 107.006 78.1463 107.28 77.9048C107.554 77.6553 107.755 77.3575 107.884 77.0114H113.969C113.759 78.2992 113.264 79.4181 112.484 80.3679C111.703 81.3097 110.669 82.0421 109.381 82.5653C108.101 83.0805 106.604 83.3381 104.889 83.3381ZM125.623 90.3409C123.764 90.3409 122.17 90.0753 120.842 89.544C119.522 89.0208 118.495 88.2964 117.763 87.3707C117.039 86.4531 116.632 85.3987 116.544 84.2074H122.967C123.031 84.6018 123.192 84.9197 123.45 85.1612C123.707 85.4027 124.037 85.5758 124.44 85.6804C124.85 85.7931 125.309 85.8494 125.816 85.8494C126.677 85.8494 127.39 85.6402 127.953 85.2216C128.525 84.803 128.811 84.0464 128.811 82.9517V79.8125H128.617C128.376 80.4403 128.006 80.9756 127.507 81.4183C127.008 81.853 126.408 82.187 125.708 82.4205C125.007 82.6458 124.239 82.7585 123.401 82.7585C122.081 82.7585 120.866 82.4527 119.755 81.8409C118.652 81.2292 117.767 80.2592 117.099 78.9311C116.439 77.603 116.109 75.8684 116.109 73.7273C116.109 71.4896 116.455 69.6705 117.147 68.2699C117.847 66.8693 118.749 65.843 119.852 65.1911C120.963 64.5391 122.13 64.2131 123.353 64.2131C124.271 64.2131 125.076 64.3741 125.768 64.696C126.46 65.0099 127.04 65.4325 127.507 65.9638C127.973 66.487 128.328 67.0625 128.569 67.6903H128.714V64.4545H135.379V82.9517C135.379 84.5213 134.972 85.8535 134.159 86.9482C133.354 88.0509 132.219 88.892 130.754 89.4716C129.289 90.0511 127.579 90.3409 125.623 90.3409ZM125.865 78.0256C126.476 78.0256 126.999 77.8565 127.434 77.5185C127.877 77.1723 128.215 76.6813 128.448 76.0455C128.69 75.4015 128.811 74.6288 128.811 73.7273C128.811 72.8097 128.69 72.0249 128.448 71.3729C128.215 70.7128 127.877 70.2098 127.434 69.8636C126.999 69.5095 126.476 69.3324 125.865 69.3324C125.253 69.3324 124.73 69.5095 124.295 69.8636C123.868 70.2098 123.538 70.7128 123.305 71.3729C123.079 72.0249 122.967 72.8097 122.967 73.7273C122.967 74.6449 123.079 75.4257 123.305 76.0696C123.538 76.7055 123.868 77.1925 124.295 77.5305C124.73 77.8606 125.253 78.0256 125.865 78.0256ZM138.768 83V64.4545H145.433V83H138.768ZM142.101 62.5227C141.199 62.5227 140.427 62.2249 139.783 61.6293C139.139 61.0336 138.817 60.3172 138.817 59.4801C138.817 58.643 139.139 57.9266 139.783 57.331C140.427 56.7353 141.199 56.4375 142.101 56.4375C143.01 56.4375 143.783 56.7353 144.419 57.331C145.063 57.9266 145.385 58.643 145.385 59.4801C145.385 60.3172 145.063 61.0336 144.419 61.6293C143.783 62.2249 143.01 62.5227 142.101 62.5227ZM165.781 70.4915H159.647C159.615 70.1132 159.482 69.7872 159.249 69.5135C159.015 69.2398 158.713 69.0305 158.343 68.8857C157.981 68.7327 157.579 68.6562 157.136 68.6562C156.564 68.6562 156.073 68.7609 155.663 68.9702C155.252 69.1795 155.051 69.4773 155.059 69.8636C155.051 70.1373 155.168 70.3909 155.409 70.6243C155.659 70.8577 156.138 71.0388 156.846 71.1676L160.613 71.8438C162.513 72.1899 163.925 72.7734 164.851 73.5945C165.785 74.4074 166.256 75.4981 166.264 76.8665C166.256 78.1866 165.861 79.3336 165.08 80.3075C164.308 81.2734 163.249 82.022 161.905 82.5533C160.569 83.0765 159.044 83.3381 157.329 83.3381C154.496 83.3381 152.278 82.7585 150.676 81.5994C149.083 80.4403 148.193 78.911 148.008 77.0114H154.624C154.713 77.599 155.003 78.0537 155.494 78.3757C155.993 78.6896 156.621 78.8466 157.377 78.8466C157.989 78.8466 158.492 78.742 158.887 78.5327C159.289 78.3234 159.494 78.0256 159.502 77.6392C159.494 77.285 159.317 77.0033 158.971 76.794C158.633 76.5848 158.102 76.4157 157.377 76.2869L154.093 75.7074C152.202 75.3774 150.785 74.7495 149.843 73.8239C148.901 72.8982 148.435 71.7069 148.443 70.25C148.435 68.9621 148.773 67.8714 149.457 66.978C150.149 66.0765 151.135 65.3923 152.415 64.9254C153.703 64.4505 155.228 64.2131 156.991 64.2131C159.671 64.2131 161.784 64.7685 163.33 65.8793C164.883 66.9901 165.7 68.5275 165.781 70.4915ZM179.877 64.4545V69.2841H167.658V64.4545H179.877ZM170.025 60.0114H176.689V77.0355C176.689 77.2931 176.734 77.5104 176.822 77.6875C176.911 77.8565 177.048 77.9853 177.233 78.0739C177.418 78.1544 177.655 78.1946 177.945 78.1946C178.146 78.1946 178.38 78.1705 178.645 78.1222C178.919 78.0739 179.12 78.0336 179.249 78.0014L180.215 82.6861C179.917 82.7746 179.491 82.8833 178.935 83.0121C178.388 83.1409 177.736 83.2254 176.979 83.2656C175.45 83.3461 174.166 83.1892 173.128 82.7947C172.089 82.3923 171.309 81.7604 170.785 80.8991C170.262 80.0379 170.009 78.9593 170.025 77.6634V60.0114ZM182.597 83V64.4545H189.068V67.9801H189.261C189.599 66.6761 190.135 65.7223 190.867 65.1186C191.608 64.5149 192.473 64.2131 193.463 64.2131C193.753 64.2131 194.039 64.2372 194.32 64.2855C194.61 64.3258 194.888 64.3861 195.153 64.4666V70.1534C194.823 70.0407 194.417 69.9562 193.934 69.8999C193.451 69.8435 193.036 69.8153 192.69 69.8153C192.038 69.8153 191.451 69.9643 190.928 70.2621C190.412 70.5518 190.006 70.9624 189.708 71.4936C189.41 72.0168 189.261 72.6326 189.261 73.3409V83H182.597ZM201.96 89.9545C201.195 89.9545 200.467 89.8942 199.775 89.7734C199.082 89.6607 198.475 89.5038 197.952 89.3026L199.4 84.5696C199.948 84.7628 200.447 84.8875 200.898 84.9439C201.356 85.0002 201.747 84.968 202.069 84.8473C202.399 84.7266 202.636 84.4972 202.781 84.1591L202.926 83.821L196.406 64.4545H203.361L206.355 77.3011H206.548L209.591 64.4545H216.594L209.832 84.5455C209.494 85.5677 209.003 86.4853 208.359 87.2983C207.723 88.1193 206.886 88.7673 205.848 89.2422C204.809 89.7171 203.514 89.9545 201.96 89.9545ZM95.6044 111.616H91.0888C90.96 110.875 90.7225 110.219 90.3764 109.648C90.0303 109.068 89.5997 108.577 89.0845 108.175C88.5694 107.772 87.9818 107.47 87.3217 107.269C86.6697 107.06 85.9654 106.955 85.2088 106.955C83.8646 106.955 82.6733 107.293 81.6349 107.969C80.5966 108.638 79.7836 109.62 79.196 110.915C78.6084 112.203 78.3146 113.777 78.3146 115.636C78.3146 117.528 78.6084 119.122 79.196 120.418C79.7917 121.705 80.6046 122.679 81.6349 123.339C82.6733 123.991 83.8606 124.317 85.1967 124.317C85.9373 124.317 86.6295 124.221 87.2734 124.028C87.9254 123.826 88.509 123.533 89.0241 123.146C89.5473 122.76 89.986 122.285 90.3402 121.722C90.7024 121.158 90.9519 120.514 91.0888 119.79L95.6044 119.814C95.4354 120.989 95.0691 122.092 94.5057 123.122C93.9503 124.152 93.2218 125.062 92.3203 125.851C91.4188 126.632 90.3643 127.243 89.157 127.686C87.9496 128.121 86.6094 128.338 85.1364 128.338C82.9631 128.338 81.0232 127.835 79.3168 126.829C77.6103 125.823 76.2661 124.37 75.2841 122.47C74.3021 120.571 73.8111 118.293 73.8111 115.636C73.8111 112.972 74.3061 110.694 75.2962 108.803C76.2862 106.903 77.6345 105.45 79.3409 104.444C81.0473 103.438 82.9792 102.935 85.1364 102.935C86.5128 102.935 87.7926 103.128 88.9759 103.514C90.1591 103.901 91.2135 104.468 92.1392 105.217C93.0649 105.957 93.8255 106.867 94.4212 107.945C95.0249 109.016 95.4193 110.239 95.6044 111.616ZM107.603 128.362C105.792 128.362 104.222 127.964 102.894 127.167C101.566 126.37 100.536 125.255 99.8031 123.822C99.0787 122.39 98.7164 120.715 98.7164 118.8C98.7164 116.884 99.0787 115.206 99.8031 113.765C100.536 112.324 101.566 111.205 102.894 110.408C104.222 109.612 105.792 109.213 107.603 109.213C109.414 109.213 110.983 109.612 112.312 110.408C113.64 111.205 114.666 112.324 115.39 113.765C116.123 115.206 116.489 116.884 116.489 118.8C116.489 120.715 116.123 122.39 115.39 123.822C114.666 125.255 113.64 126.37 112.312 127.167C110.983 127.964 109.414 128.362 107.603 128.362ZM107.627 124.861C108.609 124.861 109.43 124.591 110.09 124.052C110.75 123.504 111.241 122.772 111.563 121.854C111.893 120.937 112.058 119.915 112.058 118.788C112.058 117.653 111.893 116.626 111.563 115.709C111.241 114.783 110.75 114.047 110.09 113.499C109.43 112.952 108.609 112.678 107.627 112.678C106.621 112.678 105.784 112.952 105.116 113.499C104.456 114.047 103.961 114.783 103.631 115.709C103.309 116.626 103.148 117.653 103.148 118.788C103.148 119.915 103.309 120.937 103.631 121.854C103.961 122.772 104.456 123.504 105.116 124.052C105.784 124.591 106.621 124.861 107.627 124.861ZM124.57 117.134V128H120.199V109.455H124.376V112.606H124.594C125.02 111.567 125.701 110.742 126.634 110.131C127.576 109.519 128.739 109.213 130.124 109.213C131.403 109.213 132.518 109.487 133.468 110.034C134.426 110.581 135.166 111.374 135.69 112.413C136.221 113.451 136.482 114.711 136.474 116.192V128H132.104V116.868C132.104 115.628 131.782 114.658 131.138 113.958C130.502 113.258 129.621 112.908 128.494 112.908C127.729 112.908 127.049 113.077 126.453 113.415C125.866 113.745 125.403 114.224 125.065 114.852C124.735 115.479 124.57 116.24 124.57 117.134ZM150.178 109.455V112.835H139.517V109.455H150.178ZM142.149 105.011H146.52V122.422C146.52 123.009 146.608 123.46 146.786 123.774C146.971 124.08 147.212 124.289 147.51 124.402C147.808 124.515 148.138 124.571 148.5 124.571C148.774 124.571 149.023 124.551 149.249 124.511C149.482 124.47 149.659 124.434 149.78 124.402L150.516 127.819C150.283 127.899 149.949 127.988 149.514 128.085C149.088 128.181 148.564 128.237 147.945 128.254C146.85 128.286 145.864 128.121 144.987 127.759C144.109 127.388 143.413 126.817 142.898 126.044C142.391 125.271 142.141 124.305 142.149 123.146V105.011ZM153.834 128V109.455H158.072V112.545H158.265C158.603 111.475 159.182 110.65 160.003 110.07C160.832 109.483 161.778 109.189 162.841 109.189C163.082 109.189 163.352 109.201 163.65 109.225C163.956 109.241 164.209 109.269 164.41 109.31V113.33C164.225 113.266 163.931 113.21 163.529 113.161C163.135 113.105 162.752 113.077 162.382 113.077C161.585 113.077 160.869 113.25 160.233 113.596C159.605 113.934 159.11 114.405 158.748 115.009C158.385 115.612 158.204 116.308 158.204 117.097V128H153.834ZM172.319 128.374C171.144 128.374 170.085 128.165 169.143 127.746C168.21 127.32 167.469 126.692 166.922 125.863C166.382 125.034 166.113 124.012 166.113 122.796C166.113 121.75 166.306 120.884 166.692 120.2C167.079 119.516 167.606 118.969 168.274 118.558C168.942 118.148 169.695 117.838 170.532 117.629C171.377 117.411 172.25 117.254 173.152 117.158C174.238 117.045 175.12 116.944 175.796 116.856C176.472 116.759 176.963 116.614 177.269 116.421C177.583 116.22 177.74 115.91 177.74 115.491V115.419C177.74 114.509 177.47 113.805 176.931 113.306C176.392 112.807 175.615 112.558 174.601 112.558C173.53 112.558 172.681 112.791 172.053 113.258C171.433 113.725 171.015 114.276 170.797 114.912L166.716 114.332C167.038 113.205 167.57 112.264 168.31 111.507C169.051 110.742 169.956 110.171 171.027 109.793C172.097 109.406 173.281 109.213 174.577 109.213C175.47 109.213 176.359 109.318 177.245 109.527C178.13 109.736 178.939 110.082 179.672 110.565C180.404 111.04 180.992 111.688 181.434 112.509C181.885 113.33 182.111 114.357 182.111 115.588V128H177.909V125.452H177.764C177.498 125.968 177.124 126.451 176.641 126.901C176.166 127.344 175.567 127.702 174.842 127.976C174.126 128.241 173.285 128.374 172.319 128.374ZM173.454 125.163C174.331 125.163 175.092 124.99 175.736 124.643C176.38 124.289 176.875 123.822 177.221 123.243C177.575 122.663 177.752 122.031 177.752 121.347V119.162C177.615 119.275 177.382 119.379 177.052 119.476C176.73 119.572 176.367 119.657 175.965 119.729C175.563 119.802 175.164 119.866 174.77 119.923C174.375 119.979 174.033 120.027 173.743 120.067C173.091 120.156 172.508 120.301 171.993 120.502C171.478 120.703 171.071 120.985 170.773 121.347C170.475 121.701 170.327 122.16 170.327 122.724C170.327 123.529 170.62 124.136 171.208 124.547C171.796 124.957 172.544 125.163 173.454 125.163ZM194.595 128.362C192.744 128.362 191.154 127.956 189.826 127.143C188.506 126.33 187.488 125.207 186.771 123.774C186.063 122.333 185.709 120.675 185.709 118.8C185.709 116.916 186.071 115.254 186.795 113.813C187.52 112.364 188.542 111.237 189.862 110.433C191.19 109.62 192.76 109.213 194.571 109.213C196.076 109.213 197.408 109.491 198.567 110.046C199.734 110.594 200.664 111.37 201.356 112.376C202.049 113.375 202.443 114.542 202.54 115.878H198.362C198.193 114.984 197.791 114.24 197.155 113.644C196.527 113.04 195.686 112.739 194.631 112.739C193.738 112.739 192.953 112.98 192.277 113.463C191.601 113.938 191.073 114.622 190.695 115.516C190.325 116.409 190.14 117.48 190.14 118.727C190.14 119.991 190.325 121.078 190.695 121.987C191.065 122.889 191.585 123.585 192.253 124.076C192.929 124.559 193.722 124.8 194.631 124.8C195.275 124.8 195.851 124.68 196.358 124.438C196.873 124.189 197.304 123.83 197.65 123.364C197.996 122.897 198.233 122.329 198.362 121.661H202.54C202.435 122.973 202.049 124.136 201.381 125.151C200.712 126.157 199.803 126.946 198.652 127.517C197.501 128.08 196.148 128.362 194.595 128.362ZM215.389 109.455V112.835H204.728V109.455H215.389ZM207.36 105.011H211.731V122.422C211.731 123.009 211.819 123.46 211.996 123.774C212.182 124.08 212.423 124.289 212.721 124.402C213.019 124.515 213.349 124.571 213.711 124.571C213.985 124.571 214.234 124.551 214.46 124.511C214.693 124.47 214.87 124.434 214.991 124.402L215.727 127.819C215.494 127.899 215.16 127.988 214.725 128.085C214.299 128.181 213.775 128.237 213.156 128.254C212.061 128.286 211.075 128.121 210.197 127.759C209.32 127.388 208.624 126.817 208.109 126.044C207.602 125.271 207.352 124.305 207.36 123.146V105.011Z" fill="white"/>
<path d="M308.428 124V113.091H310.466V114.866H310.601C310.828 114.265 311.2 113.796 311.716 113.46C312.232 113.119 312.85 112.949 313.57 112.949C314.299 112.949 314.91 113.119 315.402 113.46C315.899 113.801 316.266 114.27 316.503 114.866H316.616C316.877 114.284 317.291 113.82 317.859 113.474C318.428 113.124 319.105 112.949 319.891 112.949C320.88 112.949 321.688 113.259 322.312 113.879C322.942 114.5 323.257 115.435 323.257 116.685V124H321.134V116.884C321.134 116.145 320.932 115.61 320.53 115.278C320.127 114.947 319.647 114.781 319.088 114.781C318.397 114.781 317.859 114.994 317.476 115.42C317.092 115.842 316.901 116.384 316.901 117.047V124H314.784V116.749C314.784 116.157 314.599 115.681 314.23 115.321C313.861 114.961 313.38 114.781 312.788 114.781C312.386 114.781 312.014 114.888 311.673 115.101C311.337 115.309 311.065 115.6 310.857 115.974C310.653 116.348 310.551 116.782 310.551 117.274V124H308.428ZM330.805 124.22C329.73 124.22 328.805 123.991 328.028 123.531C327.256 123.067 326.66 122.416 326.238 121.578C325.822 120.735 325.613 119.748 325.613 118.616C325.613 117.499 325.822 116.514 326.238 115.662C326.66 114.81 327.247 114.144 328 113.666C328.757 113.188 329.643 112.949 330.656 112.949C331.271 112.949 331.868 113.051 332.446 113.254C333.023 113.458 333.542 113.777 334.001 114.213C334.46 114.649 334.823 115.214 335.088 115.911C335.353 116.602 335.485 117.442 335.485 118.432V119.185H326.814V117.594H333.404C333.404 117.035 333.291 116.54 333.064 116.109C332.836 115.674 332.517 115.33 332.105 115.08C331.698 114.829 331.219 114.703 330.67 114.703C330.074 114.703 329.553 114.85 329.108 115.143C328.667 115.432 328.326 115.811 328.085 116.28C327.848 116.744 327.73 117.248 327.73 117.793V119.036C327.73 119.765 327.858 120.385 328.113 120.896C328.374 121.408 328.736 121.798 329.2 122.068C329.664 122.333 330.206 122.466 330.826 122.466C331.229 122.466 331.596 122.409 331.927 122.295C332.259 122.177 332.545 122.002 332.787 121.77C333.028 121.538 333.213 121.251 333.341 120.911L335.35 121.273C335.19 121.865 334.901 122.383 334.484 122.828C334.072 123.268 333.554 123.612 332.929 123.858C332.308 124.099 331.6 124.22 330.805 124.22ZM342.934 113.091V114.795H336.975V113.091H342.934ZM338.573 110.477H340.697V120.797C340.697 121.209 340.758 121.519 340.881 121.727C341.004 121.931 341.163 122.071 341.357 122.146C341.556 122.217 341.772 122.253 342.004 122.253C342.174 122.253 342.323 122.241 342.451 122.217C342.579 122.194 342.678 122.175 342.749 122.161L343.133 123.915C343.01 123.962 342.835 124.009 342.607 124.057C342.38 124.109 342.096 124.137 341.755 124.142C341.196 124.152 340.675 124.052 340.192 123.844C339.71 123.635 339.319 123.313 339.021 122.878C338.722 122.442 338.573 121.895 338.573 121.237V110.477ZM347.641 117.523V124H345.517V109.455H347.613V114.866H347.748C348.003 114.279 348.394 113.813 348.919 113.467C349.445 113.122 350.132 112.949 350.979 112.949C351.727 112.949 352.381 113.103 352.939 113.411C353.503 113.718 353.938 114.178 354.246 114.788C354.559 115.394 354.715 116.152 354.715 117.061V124H352.591V117.317C352.591 116.517 352.385 115.896 351.973 115.456C351.561 115.011 350.989 114.788 350.255 114.788C349.753 114.788 349.303 114.895 348.905 115.108C348.512 115.321 348.202 115.634 347.975 116.045C347.752 116.453 347.641 116.945 347.641 117.523ZM362.144 124.22C361.121 124.22 360.229 123.986 359.466 123.517C358.704 123.048 358.112 122.393 357.691 121.55C357.269 120.707 357.059 119.722 357.059 118.595C357.059 117.464 357.269 116.474 357.691 115.626C358.112 114.779 358.704 114.121 359.466 113.652C360.229 113.183 361.121 112.949 362.144 112.949C363.167 112.949 364.059 113.183 364.821 113.652C365.584 114.121 366.176 114.779 366.597 115.626C367.018 116.474 367.229 117.464 367.229 118.595C367.229 119.722 367.018 120.707 366.597 121.55C366.176 122.393 365.584 123.048 364.821 123.517C364.059 123.986 363.167 124.22 362.144 124.22ZM362.151 122.438C362.814 122.438 363.363 122.262 363.799 121.912C364.234 121.562 364.556 121.095 364.765 120.513C364.978 119.93 365.084 119.289 365.084 118.588C365.084 117.892 364.978 117.253 364.765 116.67C364.556 116.083 364.234 115.612 363.799 115.257C363.363 114.902 362.814 114.724 362.151 114.724C361.483 114.724 360.929 114.902 360.489 115.257C360.053 115.612 359.729 116.083 359.516 116.67C359.308 117.253 359.203 117.892 359.203 118.588C359.203 119.289 359.308 119.93 359.516 120.513C359.729 121.095 360.053 121.562 360.489 121.912C360.929 122.262 361.483 122.438 362.151 122.438ZM373.683 124.213C372.803 124.213 372.017 123.988 371.325 123.538C370.639 123.084 370.099 122.437 369.706 121.599C369.318 120.757 369.124 119.746 369.124 118.567C369.124 117.388 369.32 116.379 369.713 115.541C370.111 114.703 370.655 114.062 371.347 113.616C372.038 113.171 372.821 112.949 373.697 112.949C374.375 112.949 374.919 113.062 375.331 113.29C375.748 113.512 376.07 113.773 376.297 114.071C376.529 114.369 376.709 114.632 376.837 114.859H376.964V109.455H379.088V124H377.014V122.303H376.837C376.709 122.535 376.524 122.8 376.283 123.098C376.046 123.396 375.719 123.657 375.303 123.879C374.886 124.102 374.346 124.213 373.683 124.213ZM374.152 122.402C374.763 122.402 375.279 122.241 375.7 121.919C376.126 121.592 376.448 121.14 376.666 120.562C376.889 119.985 377 119.312 377 118.545C377 117.788 376.891 117.125 376.673 116.557C376.455 115.989 376.136 115.546 375.714 115.229C375.293 114.911 374.772 114.753 374.152 114.753C373.513 114.753 372.98 114.919 372.554 115.25C372.128 115.581 371.806 116.034 371.588 116.607C371.375 117.179 371.268 117.826 371.268 118.545C371.268 119.275 371.377 119.93 371.595 120.513C371.813 121.095 372.135 121.557 372.561 121.898C372.992 122.234 373.522 122.402 374.152 122.402ZM390.294 115.754L388.369 116.095C388.288 115.849 388.161 115.615 387.985 115.392C387.815 115.17 387.583 114.987 387.289 114.845C386.996 114.703 386.629 114.632 386.189 114.632C385.587 114.632 385.085 114.767 384.683 115.037C384.28 115.302 384.079 115.645 384.079 116.067C384.079 116.431 384.214 116.725 384.484 116.947C384.754 117.17 385.19 117.352 385.791 117.494L387.524 117.892C388.528 118.124 389.276 118.482 389.768 118.964C390.261 119.447 390.507 120.075 390.507 120.847C390.507 121.5 390.317 122.082 389.939 122.594C389.565 123.1 389.041 123.498 388.369 123.787C387.701 124.076 386.927 124.22 386.047 124.22C384.825 124.22 383.828 123.96 383.056 123.439C382.285 122.913 381.811 122.168 381.636 121.202L383.689 120.889C383.816 121.424 384.079 121.829 384.477 122.104C384.875 122.374 385.393 122.509 386.032 122.509C386.728 122.509 387.285 122.364 387.701 122.075C388.118 121.782 388.326 121.424 388.326 121.003C388.326 120.662 388.199 120.375 387.943 120.143C387.692 119.911 387.306 119.736 386.785 119.618L384.939 119.213C383.921 118.981 383.168 118.612 382.68 118.105C382.197 117.598 381.956 116.957 381.956 116.18C381.956 115.536 382.136 114.973 382.495 114.49C382.855 114.007 383.352 113.631 383.987 113.361C384.621 113.086 385.348 112.949 386.167 112.949C387.346 112.949 388.274 113.205 388.951 113.716C389.628 114.223 390.076 114.902 390.294 115.754Z" fill="#FFC010"/>
</g>
<g filter="url(#filter3_bd_6_420)">
<rect x="303" y="159" width="190" height="85" rx="16" fill="url(#paint2_linear_6_420)" shape-rendering="crispEdges"/>
<rect x="303.5" y="159.5" width="189" height="84" rx="15.5" stroke="#F0F0F0" stroke-opacity="0.2" shape-rendering="crispEdges"/>
<path d="M350.298 213V195.545H357.185C358.503 195.545 359.628 195.781 360.56 196.253C361.497 196.719 362.21 197.381 362.699 198.239C363.193 199.091 363.44 200.094 363.44 201.247C363.44 202.406 363.19 203.403 362.69 204.239C362.19 205.068 361.466 205.705 360.517 206.148C359.574 206.591 358.432 206.812 357.091 206.812H352.48V203.847H356.494C357.199 203.847 357.784 203.75 358.25 203.557C358.716 203.364 359.063 203.074 359.29 202.688C359.523 202.301 359.639 201.821 359.639 201.247C359.639 200.668 359.523 200.179 359.29 199.781C359.063 199.384 358.713 199.082 358.241 198.878C357.776 198.668 357.188 198.562 356.477 198.562H353.989V213H350.298ZM359.724 205.057L364.062 213H359.989L355.744 205.057H359.724ZM371.735 213.256C370.388 213.256 369.229 212.983 368.258 212.438C367.292 211.886 366.548 211.108 366.025 210.102C365.502 209.091 365.241 207.895 365.241 206.514C365.241 205.168 365.502 203.986 366.025 202.969C366.548 201.952 367.283 201.159 368.232 200.591C369.187 200.023 370.306 199.739 371.59 199.739C372.454 199.739 373.258 199.878 374.002 200.156C374.752 200.429 375.406 200.841 375.962 201.392C376.525 201.943 376.962 202.636 377.275 203.472C377.587 204.301 377.744 205.273 377.744 206.386V207.384H366.69V205.134H374.326C374.326 204.611 374.212 204.148 373.985 203.744C373.758 203.341 373.442 203.026 373.039 202.798C372.641 202.565 372.178 202.449 371.65 202.449C371.099 202.449 370.61 202.577 370.184 202.832C369.763 203.082 369.434 203.42 369.195 203.847C368.957 204.267 368.835 204.736 368.829 205.253V207.392C368.829 208.04 368.948 208.599 369.187 209.071C369.431 209.543 369.775 209.906 370.218 210.162C370.661 210.418 371.187 210.545 371.795 210.545C372.198 210.545 372.567 210.489 372.903 210.375C373.238 210.261 373.525 210.091 373.763 209.864C374.002 209.636 374.184 209.358 374.309 209.028L377.667 209.25C377.496 210.057 377.147 210.761 376.619 211.364C376.096 211.96 375.42 212.426 374.59 212.761C373.766 213.091 372.815 213.256 371.735 213.256ZM386.011 218.182C384.835 218.182 383.826 218.02 382.985 217.696C382.15 217.378 381.485 216.943 380.991 216.392C380.496 215.841 380.175 215.222 380.028 214.534L383.386 214.082C383.488 214.344 383.65 214.588 383.871 214.815C384.093 215.043 384.386 215.224 384.749 215.361C385.119 215.503 385.567 215.574 386.096 215.574C386.886 215.574 387.536 215.381 388.048 214.994C388.565 214.614 388.823 213.974 388.823 213.077V210.682H388.67C388.511 211.045 388.272 211.389 387.954 211.713C387.636 212.037 387.227 212.301 386.727 212.506C386.227 212.71 385.63 212.812 384.937 212.812C383.954 212.812 383.059 212.585 382.252 212.131C381.451 211.67 380.812 210.969 380.335 210.026C379.863 209.077 379.627 207.878 379.627 206.429C379.627 204.946 379.869 203.707 380.352 202.713C380.835 201.719 381.477 200.974 382.278 200.48C383.085 199.986 383.968 199.739 384.928 199.739C385.661 199.739 386.275 199.864 386.769 200.114C387.263 200.358 387.661 200.665 387.962 201.034C388.269 201.398 388.505 201.756 388.67 202.108H388.806V199.909H392.411V213.128C392.411 214.241 392.138 215.173 391.593 215.923C391.048 216.673 390.292 217.236 389.326 217.611C388.366 217.991 387.261 218.182 386.011 218.182ZM386.087 210.085C386.673 210.085 387.167 209.94 387.57 209.651C387.979 209.355 388.292 208.935 388.508 208.389C388.729 207.838 388.84 207.179 388.84 206.412C388.84 205.645 388.732 204.98 388.516 204.418C388.3 203.849 387.988 203.409 387.579 203.097C387.17 202.784 386.673 202.628 386.087 202.628C385.491 202.628 384.988 202.79 384.579 203.114C384.17 203.432 383.86 203.875 383.65 204.443C383.44 205.011 383.335 205.668 383.335 206.412C383.335 207.168 383.44 207.821 383.65 208.372C383.866 208.918 384.175 209.341 384.579 209.642C384.988 209.937 385.491 210.085 386.087 210.085ZM395.3 213V199.909H398.931V213H395.3ZM397.124 198.222C396.585 198.222 396.121 198.043 395.735 197.685C395.354 197.321 395.164 196.886 395.164 196.381C395.164 195.881 395.354 195.452 395.735 195.094C396.121 194.73 396.585 194.548 397.124 194.548C397.664 194.548 398.124 194.73 398.505 195.094C398.891 195.452 399.085 195.881 399.085 196.381C399.085 196.886 398.891 197.321 398.505 197.685C398.124 198.043 397.664 198.222 397.124 198.222ZM412.732 203.642L409.408 203.847C409.351 203.562 409.229 203.307 409.041 203.08C408.854 202.847 408.607 202.662 408.3 202.526C407.999 202.384 407.638 202.312 407.217 202.312C406.655 202.312 406.18 202.432 405.794 202.67C405.408 202.903 405.214 203.216 405.214 203.608C405.214 203.92 405.339 204.185 405.589 204.401C405.839 204.616 406.268 204.79 406.876 204.92L409.246 205.398C410.518 205.659 411.467 206.08 412.092 206.659C412.717 207.239 413.03 208 413.03 208.943C413.03 209.801 412.777 210.554 412.271 211.202C411.771 211.849 411.084 212.355 410.209 212.719C409.339 213.077 408.337 213.256 407.2 213.256C405.467 213.256 404.087 212.895 403.058 212.173C402.036 211.446 401.436 210.457 401.26 209.207L404.831 209.02C404.939 209.548 405.2 209.952 405.615 210.23C406.03 210.503 406.561 210.639 407.209 210.639C407.845 210.639 408.357 210.517 408.743 210.273C409.135 210.023 409.334 209.702 409.339 209.31C409.334 208.98 409.195 208.71 408.922 208.5C408.649 208.284 408.229 208.119 407.661 208.006L405.393 207.554C404.115 207.298 403.163 206.855 402.538 206.224C401.919 205.594 401.609 204.79 401.609 203.812C401.609 202.972 401.837 202.247 402.291 201.639C402.751 201.031 403.396 200.562 404.226 200.233C405.061 199.903 406.038 199.739 407.158 199.739C408.811 199.739 410.112 200.088 411.061 200.787C412.016 201.486 412.572 202.437 412.732 203.642ZM422.279 199.909V202.636H414.396V199.909H422.279ZM416.185 196.773H419.816V208.977C419.816 209.312 419.867 209.574 419.969 209.761C420.072 209.943 420.214 210.071 420.396 210.145C420.583 210.219 420.799 210.256 421.043 210.256C421.214 210.256 421.384 210.241 421.555 210.213C421.725 210.179 421.856 210.153 421.947 210.136L422.518 212.838C422.336 212.895 422.08 212.96 421.751 213.034C421.421 213.114 421.021 213.162 420.549 213.179C419.674 213.213 418.907 213.097 418.248 212.83C417.594 212.562 417.086 212.148 416.722 211.585C416.359 211.023 416.18 210.312 416.185 209.455V196.773ZM430.469 213.256C429.123 213.256 427.964 212.983 426.992 212.438C426.026 211.886 425.282 211.108 424.759 210.102C424.237 209.091 423.975 207.895 423.975 206.514C423.975 205.168 424.237 203.986 424.759 202.969C425.282 201.952 426.018 201.159 426.967 200.591C427.921 200.023 429.04 199.739 430.325 199.739C431.188 199.739 431.992 199.878 432.737 200.156C433.487 200.429 434.14 200.841 434.697 201.392C435.259 201.943 435.697 202.636 436.009 203.472C436.322 204.301 436.478 205.273 436.478 206.386V207.384H425.424V205.134H433.06C433.06 204.611 432.947 204.148 432.719 203.744C432.492 203.341 432.177 203.026 431.773 202.798C431.376 202.565 430.913 202.449 430.384 202.449C429.833 202.449 429.344 202.577 428.918 202.832C428.498 203.082 428.168 203.42 427.93 203.847C427.691 204.267 427.569 204.736 427.563 205.253V207.392C427.563 208.04 427.683 208.599 427.921 209.071C428.165 209.543 428.509 209.906 428.952 210.162C429.396 210.418 429.921 210.545 430.529 210.545C430.933 210.545 431.302 210.489 431.637 210.375C431.972 210.261 432.259 210.091 432.498 209.864C432.737 209.636 432.918 209.358 433.043 209.028L436.401 209.25C436.231 210.057 435.881 210.761 435.353 211.364C434.83 211.96 434.154 212.426 433.325 212.761C432.501 213.091 431.549 213.256 430.469 213.256ZM438.847 213V199.909H442.367V202.193H442.504C442.742 201.381 443.143 200.767 443.705 200.352C444.268 199.932 444.915 199.722 445.648 199.722C445.83 199.722 446.026 199.733 446.237 199.756C446.447 199.778 446.631 199.81 446.79 199.849V203.071C446.62 203.02 446.384 202.974 446.083 202.935C445.782 202.895 445.506 202.875 445.256 202.875C444.722 202.875 444.245 202.991 443.825 203.224C443.41 203.452 443.08 203.77 442.836 204.179C442.597 204.588 442.478 205.06 442.478 205.594V213H438.847Z" fill="white"/>
</g>
<g filter="url(#filter4_bd_6_420)">
<rect x="303" y="269" width="190" height="85" rx="16" fill="url(#paint3_linear_6_420)" shape-rendering="crispEdges"/>
<rect x="303.5" y="269.5" width="189" height="84" rx="15.5" stroke="#F0F0F0" stroke-opacity="0.2" shape-rendering="crispEdges"/>
<path d="M348.306 323V305.545H355.192C356.511 305.545 357.636 305.781 358.567 306.253C359.505 306.719 360.218 307.381 360.707 308.239C361.201 309.091 361.448 310.094 361.448 311.247C361.448 312.406 361.198 313.403 360.698 314.239C360.198 315.068 359.474 315.705 358.525 316.148C357.582 316.591 356.44 316.812 355.099 316.812H350.488V313.847H354.502C355.207 313.847 355.792 313.75 356.258 313.557C356.724 313.364 357.07 313.074 357.298 312.688C357.531 312.301 357.647 311.821 357.647 311.247C357.647 310.668 357.531 310.179 357.298 309.781C357.07 309.384 356.721 309.082 356.249 308.878C355.783 308.668 355.195 308.562 354.485 308.562H351.996V323H348.306ZM357.732 315.057L362.07 323H357.996L353.752 315.057H357.732ZM369.743 323.256C368.396 323.256 367.237 322.983 366.266 322.438C365.3 321.886 364.555 321.108 364.033 320.102C363.51 319.091 363.249 317.895 363.249 316.514C363.249 315.168 363.51 313.986 364.033 312.969C364.555 311.952 365.291 311.159 366.24 310.591C367.195 310.023 368.314 309.739 369.598 309.739C370.462 309.739 371.266 309.878 372.01 310.156C372.76 310.429 373.413 310.841 373.97 311.392C374.533 311.943 374.97 312.636 375.283 313.472C375.595 314.301 375.751 315.273 375.751 316.386V317.384H364.697V315.134H372.334C372.334 314.611 372.22 314.148 371.993 313.744C371.766 313.341 371.45 313.026 371.047 312.798C370.649 312.565 370.186 312.449 369.658 312.449C369.107 312.449 368.618 312.577 368.192 312.832C367.771 313.082 367.442 313.42 367.203 313.847C366.964 314.267 366.842 314.736 366.837 315.253V317.392C366.837 318.04 366.956 318.599 367.195 319.071C367.439 319.543 367.783 319.906 368.226 320.162C368.669 320.418 369.195 320.545 369.803 320.545C370.206 320.545 370.575 320.489 370.911 320.375C371.246 320.261 371.533 320.091 371.771 319.864C372.01 319.636 372.192 319.358 372.317 319.028L375.675 319.25C375.504 320.057 375.155 320.761 374.626 321.364C374.104 321.96 373.428 322.426 372.598 322.761C371.774 323.091 370.822 323.256 369.743 323.256ZM389.013 313.642L385.689 313.847C385.632 313.562 385.51 313.307 385.322 313.08C385.135 312.847 384.888 312.662 384.581 312.526C384.28 312.384 383.919 312.312 383.499 312.312C382.936 312.312 382.462 312.432 382.075 312.67C381.689 312.903 381.496 313.216 381.496 313.608C381.496 313.92 381.621 314.185 381.871 314.401C382.121 314.616 382.55 314.79 383.158 314.92L385.527 315.398C386.8 315.659 387.749 316.08 388.374 316.659C388.999 317.239 389.311 318 389.311 318.943C389.311 319.801 389.058 320.554 388.553 321.202C388.053 321.849 387.365 322.355 386.49 322.719C385.621 323.077 384.618 323.256 383.482 323.256C381.749 323.256 380.368 322.895 379.339 322.173C378.317 321.446 377.717 320.457 377.541 319.207L381.112 319.02C381.22 319.548 381.482 319.952 381.896 320.23C382.311 320.503 382.842 320.639 383.49 320.639C384.126 320.639 384.638 320.517 385.024 320.273C385.416 320.023 385.615 319.702 385.621 319.31C385.615 318.98 385.476 318.71 385.203 318.5C384.93 318.284 384.51 318.119 383.942 318.006L381.675 317.554C380.396 317.298 379.445 316.855 378.82 316.224C378.2 315.594 377.891 314.79 377.891 313.812C377.891 312.972 378.118 312.247 378.572 311.639C379.033 311.031 379.678 310.562 380.507 310.233C381.342 309.903 382.32 309.739 383.439 309.739C385.092 309.739 386.393 310.088 387.342 310.787C388.297 311.486 388.854 312.437 389.013 313.642ZM397.512 323.256C396.188 323.256 395.043 322.974 394.077 322.412C393.117 321.844 392.376 321.054 391.853 320.043C391.33 319.026 391.069 317.847 391.069 316.506C391.069 315.153 391.33 313.972 391.853 312.96C392.376 311.943 393.117 311.153 394.077 310.591C395.043 310.023 396.188 309.739 397.512 309.739C398.836 309.739 399.978 310.023 400.938 310.591C401.904 311.153 402.648 311.943 403.171 312.96C403.694 313.972 403.955 315.153 403.955 316.506C403.955 317.847 403.694 319.026 403.171 320.043C402.648 321.054 401.904 321.844 400.938 322.412C399.978 322.974 398.836 323.256 397.512 323.256ZM397.529 320.443C398.131 320.443 398.634 320.273 399.038 319.932C399.441 319.585 399.745 319.114 399.95 318.517C400.16 317.92 400.265 317.241 400.265 316.48C400.265 315.719 400.16 315.04 399.95 314.443C399.745 313.847 399.441 313.375 399.038 313.028C398.634 312.682 398.131 312.509 397.529 312.509C396.921 312.509 396.41 312.682 395.995 313.028C395.586 313.375 395.276 313.847 395.066 314.443C394.862 315.04 394.759 315.719 394.759 316.48C394.759 317.241 394.862 317.92 395.066 318.517C395.276 319.114 395.586 319.585 395.995 319.932C396.41 320.273 396.921 320.443 397.529 320.443ZM409.947 305.545V323H406.316V305.545H409.947ZM425.06 309.909L420.483 323H416.392L411.815 309.909H415.651L418.369 319.276H418.506L421.216 309.909H425.06ZM432.462 323.256C431.115 323.256 429.956 322.983 428.984 322.438C428.018 321.886 427.274 321.108 426.751 320.102C426.229 319.091 425.967 317.895 425.967 316.514C425.967 315.168 426.229 313.986 426.751 312.969C427.274 311.952 428.01 311.159 428.959 310.591C429.913 310.023 431.033 309.739 432.317 309.739C433.18 309.739 433.984 309.878 434.729 310.156C435.479 310.429 436.132 310.841 436.689 311.392C437.251 311.943 437.689 312.636 438.001 313.472C438.314 314.301 438.47 315.273 438.47 316.386V317.384H427.416V315.134H435.053C435.053 314.611 434.939 314.148 434.712 313.744C434.484 313.341 434.169 313.026 433.766 312.798C433.368 312.565 432.905 312.449 432.376 312.449C431.825 312.449 431.337 312.577 430.911 312.832C430.49 313.082 430.161 313.42 429.922 313.847C429.683 314.267 429.561 314.736 429.555 315.253V317.392C429.555 318.04 429.675 318.599 429.913 319.071C430.158 319.543 430.501 319.906 430.945 320.162C431.388 320.418 431.913 320.545 432.521 320.545C432.925 320.545 433.294 320.489 433.629 320.375C433.964 320.261 434.251 320.091 434.49 319.864C434.729 319.636 434.911 319.358 435.036 319.028L438.393 319.25C438.223 320.057 437.874 320.761 437.345 321.364C436.822 321.96 436.146 322.426 435.317 322.761C434.493 323.091 433.541 323.256 432.462 323.256ZM440.839 323V309.909H444.359V312.193H444.496C444.734 311.381 445.135 310.767 445.697 310.352C446.26 309.932 446.908 309.722 447.641 309.722C447.822 309.722 448.018 309.733 448.229 309.756C448.439 309.778 448.624 309.81 448.783 309.849V313.071C448.612 313.02 448.376 312.974 448.075 312.935C447.774 312.895 447.499 312.875 447.249 312.875C446.714 312.875 446.237 312.991 445.817 313.224C445.402 313.452 445.072 313.77 444.828 314.179C444.589 314.588 444.47 315.06 444.47 315.594V323H440.839Z" fill="white"/>
</g>
</g>
<g filter="url(#filter5_d_6_420)">
<g filter="url(#filter6_bd_6_420)">
<rect x="576" y="4" width="504" height="177" rx="16" fill="url(#paint4_linear_6_420)" shape-rendering="crispEdges"/>
<rect x="576.5" y="4.5" width="503" height="176" rx="15.5" stroke="#F0F0F0" stroke-opacity="0.2" shape-rendering="crispEdges"/>
<path d="M716.428 124V113.091H718.466V114.866H718.601C718.828 114.265 719.2 113.796 719.716 113.46C720.232 113.119 720.85 112.949 721.57 112.949C722.299 112.949 722.91 113.119 723.402 113.46C723.899 113.801 724.266 114.27 724.503 114.866H724.616C724.877 114.284 725.291 113.82 725.859 113.474C726.428 113.124 727.105 112.949 727.891 112.949C728.88 112.949 729.688 113.259 730.312 113.879C730.942 114.5 731.257 115.435 731.257 116.685V124H729.134V116.884C729.134 116.145 728.932 115.61 728.53 115.278C728.127 114.947 727.647 114.781 727.088 114.781C726.397 114.781 725.859 114.994 725.476 115.42C725.092 115.842 724.901 116.384 724.901 117.047V124H722.784V116.749C722.784 116.157 722.599 115.681 722.23 115.321C721.861 114.961 721.38 114.781 720.788 114.781C720.386 114.781 720.014 114.888 719.673 115.101C719.337 115.309 719.065 115.6 718.857 115.974C718.653 116.348 718.551 116.782 718.551 117.274V124H716.428ZM738.805 124.22C737.73 124.22 736.805 123.991 736.028 123.531C735.256 123.067 734.66 122.416 734.238 121.578C733.822 120.735 733.613 119.748 733.613 118.616C733.613 117.499 733.822 116.514 734.238 115.662C734.66 114.81 735.247 114.144 736 113.666C736.757 113.188 737.643 112.949 738.656 112.949C739.271 112.949 739.868 113.051 740.446 113.254C741.023 113.458 741.542 113.777 742.001 114.213C742.46 114.649 742.823 115.214 743.088 115.911C743.353 116.602 743.485 117.442 743.485 118.432V119.185H734.814V117.594H741.404C741.404 117.035 741.291 116.54 741.064 116.109C740.836 115.674 740.517 115.33 740.105 115.08C739.698 114.829 739.219 114.703 738.67 114.703C738.074 114.703 737.553 114.85 737.108 115.143C736.667 115.432 736.326 115.811 736.085 116.28C735.848 116.744 735.73 117.248 735.73 117.793V119.036C735.73 119.765 735.858 120.385 736.113 120.896C736.374 121.408 736.736 121.798 737.2 122.068C737.664 122.333 738.206 122.466 738.826 122.466C739.229 122.466 739.596 122.409 739.927 122.295C740.259 122.177 740.545 122.002 740.787 121.77C741.028 121.538 741.213 121.251 741.341 120.911L743.35 121.273C743.19 121.865 742.901 122.383 742.484 122.828C742.072 123.268 741.554 123.612 740.929 123.858C740.308 124.099 739.6 124.22 738.805 124.22ZM750.934 113.091V114.795H744.975V113.091H750.934ZM746.573 110.477H748.697V120.797C748.697 121.209 748.758 121.519 748.881 121.727C749.004 121.931 749.163 122.071 749.357 122.146C749.556 122.217 749.772 122.253 750.004 122.253C750.174 122.253 750.323 122.241 750.451 122.217C750.579 122.194 750.678 122.175 750.749 122.161L751.133 123.915C751.01 123.962 750.835 124.009 750.607 124.057C750.38 124.109 750.096 124.137 749.755 124.142C749.196 124.152 748.675 124.052 748.192 123.844C747.71 123.635 747.319 123.313 747.021 122.878C746.722 122.442 746.573 121.895 746.573 121.237V110.477ZM755.641 117.523V124H753.517V109.455H755.613V114.866H755.748C756.003 114.279 756.394 113.813 756.919 113.467C757.445 113.122 758.132 112.949 758.979 112.949C759.727 112.949 760.381 113.103 760.939 113.411C761.503 113.718 761.938 114.178 762.246 114.788C762.559 115.394 762.715 116.152 762.715 117.061V124H760.591V117.317C760.591 116.517 760.385 115.896 759.973 115.456C759.561 115.011 758.989 114.788 758.255 114.788C757.753 114.788 757.303 114.895 756.905 115.108C756.512 115.321 756.202 115.634 755.975 116.045C755.752 116.453 755.641 116.945 755.641 117.523ZM770.144 124.22C769.121 124.22 768.229 123.986 767.466 123.517C766.704 123.048 766.112 122.393 765.691 121.55C765.269 120.707 765.059 119.722 765.059 118.595C765.059 117.464 765.269 116.474 765.691 115.626C766.112 114.779 766.704 114.121 767.466 113.652C768.229 113.183 769.121 112.949 770.144 112.949C771.167 112.949 772.059 113.183 772.821 113.652C773.584 114.121 774.176 114.779 774.597 115.626C775.018 116.474 775.229 117.464 775.229 118.595C775.229 119.722 775.018 120.707 774.597 121.55C774.176 122.393 773.584 123.048 772.821 123.517C772.059 123.986 771.167 124.22 770.144 124.22ZM770.151 122.438C770.814 122.438 771.363 122.262 771.799 121.912C772.234 121.562 772.556 121.095 772.765 120.513C772.978 119.93 773.084 119.289 773.084 118.588C773.084 117.892 772.978 117.253 772.765 116.67C772.556 116.083 772.234 115.612 771.799 115.257C771.363 114.902 770.814 114.724 770.151 114.724C769.483 114.724 768.929 114.902 768.489 115.257C768.053 115.612 767.729 116.083 767.516 116.67C767.308 117.253 767.203 117.892 767.203 118.588C767.203 119.289 767.308 119.93 767.516 120.513C767.729 121.095 768.053 121.562 768.489 121.912C768.929 122.262 769.483 122.438 770.151 122.438ZM781.683 124.213C780.803 124.213 780.017 123.988 779.325 123.538C778.639 123.084 778.099 122.437 777.706 121.599C777.318 120.757 777.124 119.746 777.124 118.567C777.124 117.388 777.32 116.379 777.713 115.541C778.111 114.703 778.655 114.062 779.347 113.616C780.038 113.171 780.821 112.949 781.697 112.949C782.375 112.949 782.919 113.062 783.331 113.29C783.748 113.512 784.07 113.773 784.297 114.071C784.529 114.369 784.709 114.632 784.837 114.859H784.964V109.455H787.088V124H785.014V122.303H784.837C784.709 122.535 784.524 122.8 784.283 123.098C784.046 123.396 783.719 123.657 783.303 123.879C782.886 124.102 782.346 124.213 781.683 124.213ZM782.152 122.402C782.763 122.402 783.279 122.241 783.7 121.919C784.126 121.592 784.448 121.14 784.666 120.562C784.889 119.985 785 119.312 785 118.545C785 117.788 784.891 117.125 784.673 116.557C784.455 115.989 784.136 115.546 783.714 115.229C783.293 114.911 782.772 114.753 782.152 114.753C781.513 114.753 780.98 114.919 780.554 115.25C780.128 115.581 779.806 116.034 779.588 116.607C779.375 117.179 779.268 117.826 779.268 118.545C779.268 119.275 779.377 119.93 779.595 120.513C779.813 121.095 780.135 121.557 780.561 121.898C780.992 122.234 781.522 122.402 782.152 122.402ZM798.294 115.754L796.369 116.095C796.288 115.849 796.161 115.615 795.985 115.392C795.815 115.17 795.583 114.987 795.289 114.845C794.996 114.703 794.629 114.632 794.189 114.632C793.587 114.632 793.085 114.767 792.683 115.037C792.28 115.302 792.079 115.645 792.079 116.067C792.079 116.431 792.214 116.725 792.484 116.947C792.754 117.17 793.19 117.352 793.791 117.494L795.524 117.892C796.528 118.124 797.276 118.482 797.768 118.964C798.261 119.447 798.507 120.075 798.507 120.847C798.507 121.5 798.317 122.082 797.939 122.594C797.565 123.1 797.041 123.498 796.369 123.787C795.701 124.076 794.927 124.22 794.047 124.22C792.825 124.22 791.828 123.96 791.056 123.439C790.285 122.913 789.811 122.168 789.636 121.202L791.689 120.889C791.816 121.424 792.079 121.829 792.477 122.104C792.875 122.374 793.393 122.509 794.032 122.509C794.728 122.509 795.285 122.364 795.701 122.075C796.118 121.782 796.326 121.424 796.326 121.003C796.326 120.662 796.199 120.375 795.943 120.143C795.692 119.911 795.306 119.736 794.785 119.618L792.939 119.213C791.921 118.981 791.168 118.612 790.68 118.105C790.197 117.598 789.956 116.957 789.956 116.18C789.956 115.536 790.136 114.973 790.495 114.49C790.855 114.007 791.352 113.631 791.987 113.361C792.621 113.086 793.348 112.949 794.167 112.949C795.346 112.949 796.274 113.205 796.951 113.716C797.628 114.223 798.076 114.902 798.294 115.754Z" fill="#FFC010"/>
<path d="M906.923 66C906.859 65.1951 906.557 64.5672 906.018 64.1165C905.487 63.6657 904.678 63.4403 903.591 63.4403C902.899 63.4403 902.331 63.5249 901.888 63.6939C901.454 63.8549 901.132 64.0762 900.923 64.358C900.713 64.6397 900.605 64.9616 900.597 65.3239C900.58 65.6217 900.633 65.8913 900.754 66.1328C900.882 66.3662 901.084 66.5795 901.357 66.7727C901.631 66.9579 901.981 67.1269 902.408 67.2798C902.834 67.4328 903.341 67.5696 903.929 67.6903L905.957 68.125C907.326 68.4148 908.497 68.7971 909.471 69.272C910.445 69.7469 911.242 70.3063 911.862 70.9503C912.481 71.5862 912.936 72.3026 913.226 73.0994C913.524 73.8963 913.677 74.7656 913.685 75.7074C913.677 77.3333 913.27 78.7098 912.465 79.8366C911.66 80.9635 910.509 81.8208 909.012 82.4084C907.523 82.996 905.732 83.2898 903.639 83.2898C901.49 83.2898 899.615 82.9718 898.013 82.3359C896.419 81.7 895.179 80.7221 894.294 79.402C893.417 78.0739 892.974 76.3755 892.966 74.3068H899.341C899.381 75.0634 899.57 75.6993 899.908 76.2145C900.246 76.7296 900.721 77.12 901.333 77.3857C901.953 77.6513 902.689 77.7841 903.543 77.7841C904.259 77.7841 904.859 77.6955 905.342 77.5185C905.825 77.3414 906.191 77.0959 906.44 76.782C906.69 76.468 906.819 76.1098 906.827 75.7074C906.819 75.3291 906.694 74.9991 906.452 74.7173C906.219 74.4276 905.833 74.17 905.293 73.9446C904.754 73.7112 904.026 73.4938 903.108 73.2926L900.645 72.7614C898.455 72.2865 896.729 71.4936 895.465 70.3828C894.21 69.264 893.586 67.7386 893.594 65.8068C893.586 64.2372 894.004 62.8648 894.849 61.6896C895.703 60.5064 896.882 59.5848 898.387 58.9247C899.9 58.2647 901.635 57.9347 903.591 57.9347C905.587 57.9347 907.314 58.2687 908.771 58.9368C910.228 59.6049 911.35 60.5466 912.139 61.7621C912.936 62.9695 913.339 64.3821 913.347 66H906.923ZM927.395 64.4545V69.2841H915.176V64.4545H927.395ZM917.542 60.0114H924.207V77.0355C924.207 77.2931 924.251 77.5104 924.34 77.6875C924.428 77.8565 924.565 77.9853 924.75 78.0739C924.935 78.1544 925.173 78.1946 925.463 78.1946C925.664 78.1946 925.897 78.1705 926.163 78.1222C926.437 78.0739 926.638 78.0336 926.767 78.0014L927.733 82.6861C927.435 82.7746 927.008 82.8833 926.453 83.0121C925.905 83.1409 925.253 83.2254 924.497 83.2656C922.967 83.3461 921.684 83.1892 920.645 82.7947C919.607 82.3923 918.826 81.7604 918.303 80.8991C917.78 80.0379 917.526 78.9593 917.542 77.6634V60.0114ZM938.85 83.3381C936.837 83.3381 935.115 82.9396 933.682 82.1428C932.249 81.3378 931.151 80.219 930.386 78.7862C929.621 77.3454 929.239 75.6752 929.239 73.7756C929.239 71.8759 929.621 70.2098 930.386 68.777C931.151 67.3362 932.249 66.2173 933.682 65.4205C935.115 64.6155 936.837 64.2131 938.85 64.2131C940.862 64.2131 942.584 64.6155 944.017 65.4205C945.45 66.2173 946.549 67.3362 947.313 68.777C948.078 70.2098 948.46 71.8759 948.46 73.7756C948.46 75.6752 948.078 77.3454 947.313 78.7862C946.549 80.219 945.45 81.3378 944.017 82.1428C942.584 82.9396 940.862 83.3381 938.85 83.3381ZM938.898 78.4119C939.461 78.4119 939.948 78.2228 940.359 77.8445C940.769 77.4661 941.087 76.9268 941.313 76.2266C941.538 75.5263 941.651 74.6932 941.651 73.7273C941.651 72.7533 941.538 71.9202 941.313 71.228C941.087 70.5277 940.769 69.9884 940.359 69.6101C939.948 69.2318 939.461 69.0426 938.898 69.0426C938.302 69.0426 937.791 69.2318 937.365 69.6101C936.938 69.9884 936.612 70.5277 936.387 71.228C936.161 71.9202 936.048 72.7533 936.048 73.7273C936.048 74.6932 936.161 75.5263 936.387 76.2266C936.612 76.9268 936.938 77.4661 937.365 77.8445C937.791 78.2228 938.302 78.4119 938.898 78.4119ZM951.165 83V64.4545H957.637V67.9801H957.83C958.168 66.6761 958.703 65.7223 959.436 65.1186C960.176 64.5149 961.041 64.2131 962.031 64.2131C962.321 64.2131 962.607 64.2372 962.889 64.2855C963.178 64.3258 963.456 64.3861 963.722 64.4666V70.1534C963.392 70.0407 962.985 69.9562 962.502 69.8999C962.019 69.8435 961.605 69.8153 961.259 69.8153C960.607 69.8153 960.019 69.9643 959.496 70.2621C958.981 70.5518 958.574 70.9624 958.276 71.4936C957.979 72.0168 957.83 72.6326 957.83 73.3409V83H951.165ZM970.211 83.2898C969.028 83.2898 967.982 83.0966 967.072 82.7102C966.171 82.3158 965.462 81.7202 964.947 80.9233C964.432 80.1264 964.175 79.1122 964.175 77.8807C964.175 76.8665 964.348 76.0012 964.694 75.2848C965.04 74.5604 965.523 73.9688 966.143 73.5099C966.762 73.0511 967.483 72.701 968.304 72.4595C969.133 72.218 970.026 72.0611 970.984 71.9886C972.023 71.9081 972.856 71.8116 973.483 71.6989C974.119 71.5781 974.578 71.4131 974.86 71.2038C975.142 70.9865 975.282 70.7008 975.282 70.3466V70.2983C975.282 69.8153 975.097 69.4451 974.727 69.1875C974.357 68.9299 973.882 68.8011 973.302 68.8011C972.666 68.8011 972.147 68.942 971.745 69.2237C971.35 69.4974 971.113 69.92 971.032 70.4915H964.899C964.979 69.3646 965.338 68.3262 965.974 67.3764C966.617 66.4186 967.555 65.6539 968.787 65.0824C970.018 64.5028 971.556 64.2131 973.399 64.2131C974.727 64.2131 975.918 64.37 976.973 64.6839C978.027 64.9898 978.925 65.4205 979.665 65.9759C980.406 66.5232 980.969 67.1671 981.356 67.9077C981.75 68.6402 981.947 69.437 981.947 70.2983V83H975.717V80.392H975.572C975.202 81.0843 974.751 81.6437 974.22 82.0703C973.697 82.4969 973.097 82.8068 972.421 83C971.753 83.1932 971.016 83.2898 970.211 83.2898ZM972.385 79.0881C972.892 79.0881 973.367 78.9834 973.809 78.7741C974.26 78.5649 974.626 78.263 974.908 77.8686C975.19 77.4742 975.331 76.9953 975.331 76.4318V74.8864C975.154 74.9588 974.965 75.0272 974.763 75.0916C974.57 75.156 974.361 75.2164 974.135 75.2727C973.918 75.3291 973.685 75.3814 973.435 75.4297C973.194 75.478 972.94 75.5223 972.675 75.5625C972.159 75.643 971.737 75.7758 971.407 75.9609C971.085 76.138 970.843 76.3594 970.682 76.625C970.529 76.8826 970.453 77.1723 970.453 77.4943C970.453 78.0095 970.634 78.4039 970.996 78.6776C971.358 78.9512 971.821 79.0881 972.385 79.0881ZM994.066 90.3409C992.207 90.3409 990.613 90.0753 989.285 89.544C987.965 89.0208 986.939 88.2964 986.206 87.3707C985.482 86.4531 985.075 85.3987 984.987 84.2074H991.41C991.475 84.6018 991.636 84.9197 991.893 85.1612C992.151 85.4027 992.481 85.5758 992.883 85.6804C993.294 85.7931 993.752 85.8494 994.26 85.8494C995.121 85.8494 995.833 85.6402 996.397 85.2216C996.968 84.803 997.254 84.0464 997.254 82.9517V79.8125H997.061C996.819 80.4403 996.449 80.9756 995.95 81.4183C995.451 81.853 994.851 82.187 994.151 82.4205C993.451 82.6458 992.682 82.7585 991.845 82.7585C990.525 82.7585 989.309 82.4527 988.199 81.8409C987.096 81.2292 986.21 80.2592 985.542 78.9311C984.882 77.603 984.552 75.8684 984.552 73.7273C984.552 71.4896 984.898 69.6705 985.591 68.2699C986.291 66.8693 987.192 65.843 988.295 65.1911C989.406 64.5391 990.573 64.2131 991.797 64.2131C992.714 64.2131 993.519 64.3741 994.211 64.696C994.904 65.0099 995.483 65.4325 995.95 65.9638C996.417 66.487 996.771 67.0625 997.012 67.6903H997.157V64.4545H1003.82V82.9517C1003.82 84.5213 1003.42 85.8535 1002.6 86.9482C1001.8 88.0509 1000.66 88.892 999.198 89.4716C997.733 90.0511 996.022 90.3409 994.066 90.3409ZM994.308 78.0256C994.92 78.0256 995.443 77.8565 995.877 77.5185C996.32 77.1723 996.658 76.6813 996.892 76.0455C997.133 75.4015 997.254 74.6288 997.254 73.7273C997.254 72.8097 997.133 72.0249 996.892 71.3729C996.658 70.7128 996.32 70.2098 995.877 69.8636C995.443 69.5095 994.92 69.3324 994.308 69.3324C993.696 69.3324 993.173 69.5095 992.738 69.8636C992.312 70.2098 991.982 70.7128 991.748 71.3729C991.523 72.0249 991.41 72.8097 991.41 73.7273C991.41 74.6449 991.523 75.4257 991.748 76.0696C991.982 76.7055 992.312 77.1925 992.738 77.5305C993.173 77.8606 993.696 78.0256 994.308 78.0256ZM1016.1 83.3381C1014.12 83.3381 1012.41 82.9598 1010.98 82.2031C1009.55 81.4384 1008.46 80.3437 1007.68 78.919C1006.92 77.4863 1006.54 75.7718 1006.54 73.7756C1006.54 71.8598 1006.92 70.1856 1007.69 68.7528C1008.47 67.3201 1009.56 66.2053 1010.97 65.4084C1012.38 64.6115 1014.04 64.2131 1015.95 64.2131C1017.35 64.2131 1018.62 64.4304 1019.76 64.8651C1020.89 65.2997 1021.86 65.9316 1022.67 66.7607C1023.47 67.5817 1024.09 68.5798 1024.53 69.755C1024.96 70.9302 1025.18 72.2543 1025.18 73.7273V75.2727H1008.61V71.6023H1019.04C1019.04 71.071 1018.9 70.6042 1018.63 70.2017C1018.38 69.7912 1018.03 69.4732 1017.58 69.2479C1017.15 69.0144 1016.65 68.8977 1016.1 68.8977C1015.56 68.8977 1015.06 69.0144 1014.61 69.2479C1014.16 69.4732 1013.8 69.7872 1013.53 70.1896C1013.26 70.5921 1013.12 71.063 1013.1 71.6023V75.5625C1013.1 76.1581 1013.23 76.6894 1013.48 77.1562C1013.73 77.6231 1014.09 77.9893 1014.55 78.255C1015.02 78.5206 1015.58 78.6534 1016.24 78.6534C1016.7 78.6534 1017.12 78.589 1017.5 78.4602C1017.89 78.3314 1018.22 78.1463 1018.49 77.9048C1018.76 77.6553 1018.96 77.3575 1019.09 77.0114H1025.18C1024.97 78.2992 1024.47 79.4181 1023.69 80.3679C1022.91 81.3097 1021.88 82.0421 1020.59 82.5653C1019.31 83.0805 1017.81 83.3381 1016.1 83.3381ZM915.604 111.616H911.089C910.96 110.875 910.723 110.219 910.376 109.648C910.03 109.068 909.6 108.577 909.085 108.175C908.569 107.772 907.982 107.47 907.322 107.269C906.67 107.06 905.965 106.955 905.209 106.955C903.865 106.955 902.673 107.293 901.635 107.969C900.597 108.638 899.784 109.62 899.196 110.915C898.608 112.203 898.315 113.777 898.315 115.636C898.315 117.528 898.608 119.122 899.196 120.418C899.792 121.705 900.605 122.679 901.635 123.339C902.673 123.991 903.861 124.317 905.197 124.317C905.937 124.317 906.629 124.221 907.273 124.028C907.925 123.826 908.509 123.533 909.024 123.146C909.547 122.76 909.986 122.285 910.34 121.722C910.702 121.158 910.952 120.514 911.089 119.79L915.604 119.814C915.435 120.989 915.069 122.092 914.506 123.122C913.95 124.152 913.222 125.062 912.32 125.851C911.419 126.632 910.364 127.243 909.157 127.686C907.95 128.121 906.609 128.338 905.136 128.338C902.963 128.338 901.023 127.835 899.317 126.829C897.61 125.823 896.266 124.37 895.284 122.47C894.302 120.571 893.811 118.293 893.811 115.636C893.811 112.972 894.306 110.694 895.296 108.803C896.286 106.903 897.634 105.45 899.341 104.444C901.047 103.438 902.979 102.935 905.136 102.935C906.513 102.935 907.793 103.128 908.976 103.514C910.159 103.901 911.214 104.468 912.139 105.217C913.065 105.957 913.826 106.867 914.421 107.945C915.025 109.016 915.419 110.239 915.604 111.616ZM927.603 128.362C925.792 128.362 924.222 127.964 922.894 127.167C921.566 126.37 920.536 125.255 919.803 123.822C919.079 122.39 918.716 120.715 918.716 118.8C918.716 116.884 919.079 115.206 919.803 113.765C920.536 112.324 921.566 111.205 922.894 110.408C924.222 109.612 925.792 109.213 927.603 109.213C929.414 109.213 930.983 109.612 932.312 110.408C933.64 111.205 934.666 112.324 935.39 113.765C936.123 115.206 936.489 116.884 936.489 118.8C936.489 120.715 936.123 122.39 935.39 123.822C934.666 125.255 933.64 126.37 932.312 127.167C930.983 127.964 929.414 128.362 927.603 128.362ZM927.627 124.861C928.609 124.861 929.43 124.591 930.09 124.052C930.75 123.504 931.241 122.772 931.563 121.854C931.893 120.937 932.058 119.915 932.058 118.788C932.058 117.653 931.893 116.626 931.563 115.709C931.241 114.783 930.75 114.047 930.09 113.499C929.43 112.952 928.609 112.678 927.627 112.678C926.621 112.678 925.784 112.952 925.116 113.499C924.456 114.047 923.961 114.783 923.631 115.709C923.309 116.626 923.148 117.653 923.148 118.788C923.148 119.915 923.309 120.937 923.631 121.854C923.961 122.772 924.456 123.504 925.116 124.052C925.784 124.591 926.621 124.861 927.627 124.861ZM944.57 117.134V128H940.199V109.455H944.376V112.606H944.594C945.02 111.567 945.701 110.742 946.634 110.131C947.576 109.519 948.739 109.213 950.124 109.213C951.403 109.213 952.518 109.487 953.468 110.034C954.426 110.581 955.166 111.374 955.69 112.413C956.221 113.451 956.482 114.711 956.474 116.192V128H952.104V116.868C952.104 115.628 951.782 114.658 951.138 113.958C950.502 113.258 949.621 112.908 948.494 112.908C947.729 112.908 947.049 113.077 946.453 113.415C945.866 113.745 945.403 114.224 945.065 114.852C944.735 115.479 944.57 116.24 944.57 117.134ZM970.178 109.455V112.835H959.517V109.455H970.178ZM962.149 105.011H966.52V122.422C966.52 123.009 966.608 123.46 966.786 123.774C966.971 124.08 967.212 124.289 967.51 124.402C967.808 124.515 968.138 124.571 968.5 124.571C968.774 124.571 969.023 124.551 969.249 124.511C969.482 124.47 969.659 124.434 969.78 124.402L970.516 127.819C970.283 127.899 969.949 127.988 969.514 128.085C969.088 128.181 968.564 128.237 967.945 128.254C966.85 128.286 965.864 128.121 964.987 127.759C964.109 127.388 963.413 126.817 962.898 126.044C962.391 125.271 962.141 124.305 962.149 123.146V105.011ZM973.834 128V109.455H978.072V112.545H978.265C978.603 111.475 979.182 110.65 980.003 110.07C980.832 109.483 981.778 109.189 982.841 109.189C983.082 109.189 983.352 109.201 983.65 109.225C983.956 109.241 984.209 109.269 984.41 109.31V113.33C984.225 113.266 983.931 113.21 983.529 113.161C983.135 113.105 982.752 113.077 982.382 113.077C981.585 113.077 980.869 113.25 980.233 113.596C979.605 113.934 979.11 114.405 978.748 115.009C978.385 115.612 978.204 116.308 978.204 117.097V128H973.834ZM992.319 128.374C991.144 128.374 990.085 128.165 989.143 127.746C988.21 127.32 987.469 126.692 986.922 125.863C986.382 125.034 986.113 124.012 986.113 122.796C986.113 121.75 986.306 120.884 986.692 120.2C987.079 119.516 987.606 118.969 988.274 118.558C988.942 118.148 989.695 117.838 990.532 117.629C991.377 117.411 992.25 117.254 993.152 117.158C994.238 117.045 995.12 116.944 995.796 116.856C996.472 116.759 996.963 116.614 997.269 116.421C997.583 116.22 997.74 115.91 997.74 115.491V115.419C997.74 114.509 997.47 113.805 996.931 113.306C996.392 112.807 995.615 112.558 994.601 112.558C993.53 112.558 992.681 112.791 992.053 113.258C991.433 113.725 991.015 114.276 990.797 114.912L986.716 114.332C987.038 113.205 987.57 112.264 988.31 111.507C989.051 110.742 989.956 110.171 991.027 109.793C992.097 109.406 993.281 109.213 994.577 109.213C995.47 109.213 996.359 109.318 997.245 109.527C998.13 109.736 998.939 110.082 999.672 110.565C1000.4 111.04 1000.99 111.688 1001.43 112.509C1001.89 113.33 1002.11 114.357 1002.11 115.588V128H997.909V125.452H997.764C997.498 125.968 997.124 126.451 996.641 126.901C996.166 127.344 995.567 127.702 994.842 127.976C994.126 128.241 993.285 128.374 992.319 128.374ZM993.454 125.163C994.331 125.163 995.092 124.99 995.736 124.643C996.38 124.289 996.875 123.822 997.221 123.243C997.575 122.663 997.752 122.031 997.752 121.347V119.162C997.615 119.275 997.382 119.379 997.052 119.476C996.73 119.572 996.367 119.657 995.965 119.729C995.563 119.802 995.164 119.866 994.77 119.923C994.375 119.979 994.033 120.027 993.743 120.067C993.091 120.156 992.508 120.301 991.993 120.502C991.478 120.703 991.071 120.985 990.773 121.347C990.475 121.701 990.327 122.16 990.327 122.724C990.327 123.529 990.62 124.136 991.208 124.547C991.796 124.957 992.544 125.163 993.454 125.163ZM1014.59 128.362C1012.74 128.362 1011.15 127.956 1009.83 127.143C1008.51 126.33 1007.49 125.207 1006.77 123.774C1006.06 122.333 1005.71 120.675 1005.71 118.8C1005.71 116.916 1006.07 115.254 1006.8 113.813C1007.52 112.364 1008.54 111.237 1009.86 110.433C1011.19 109.62 1012.76 109.213 1014.57 109.213C1016.08 109.213 1017.41 109.491 1018.57 110.046C1019.73 110.594 1020.66 111.37 1021.36 112.376C1022.05 113.375 1022.44 114.542 1022.54 115.878H1018.36C1018.19 114.984 1017.79 114.24 1017.15 113.644C1016.53 113.04 1015.69 112.739 1014.63 112.739C1013.74 112.739 1012.95 112.98 1012.28 113.463C1011.6 113.938 1011.07 114.622 1010.7 115.516C1010.32 116.409 1010.14 117.48 1010.14 118.727C1010.14 119.991 1010.32 121.078 1010.7 121.987C1011.07 122.889 1011.58 123.585 1012.25 124.076C1012.93 124.559 1013.72 124.8 1014.63 124.8C1015.28 124.8 1015.85 124.68 1016.36 124.438C1016.87 124.189 1017.3 123.83 1017.65 123.364C1018 122.897 1018.23 122.329 1018.36 121.661H1022.54C1022.43 122.973 1022.05 124.136 1021.38 125.151C1020.71 126.157 1019.8 126.946 1018.65 127.517C1017.5 128.08 1016.15 128.362 1014.59 128.362ZM1035.39 109.455V112.835H1024.73V109.455H1035.39ZM1027.36 105.011H1031.73V122.422C1031.73 123.009 1031.82 123.46 1032 123.774C1032.18 124.08 1032.42 124.289 1032.72 124.402C1033.02 124.515 1033.35 124.571 1033.71 124.571C1033.98 124.571 1034.23 124.551 1034.46 124.511C1034.69 124.47 1034.87 124.434 1034.99 124.402L1035.73 127.819C1035.49 127.899 1035.16 127.988 1034.73 128.085C1034.3 128.181 1033.78 128.237 1033.16 128.254C1032.06 128.286 1031.07 128.121 1030.2 127.759C1029.32 127.388 1028.62 126.817 1028.11 126.044C1027.6 125.271 1027.35 124.305 1027.36 123.146V105.011Z" fill="white"/>
</g>
<g filter="url(#filter7_bd_6_420)">
<rect x="611" y="159" width="190" height="85" rx="16" fill="url(#paint5_linear_6_420)" shape-rendering="crispEdges"/>
<rect x="611.5" y="159.5" width="189" height="84" rx="15.5" stroke="#F0F0F0" stroke-opacity="0.2" shape-rendering="crispEdges"/>
<path d="M698.126 201.188C698.007 200.773 697.839 200.406 697.623 200.088C697.407 199.764 697.143 199.491 696.831 199.27C696.524 199.043 696.172 198.869 695.774 198.75C695.382 198.631 694.947 198.571 694.47 198.571C693.578 198.571 692.794 198.793 692.118 199.236C691.447 199.679 690.924 200.324 690.549 201.17C690.174 202.011 689.987 203.04 689.987 204.256C689.987 205.472 690.172 206.506 690.541 207.358C690.91 208.21 691.433 208.861 692.109 209.31C692.785 209.753 693.583 209.974 694.504 209.974C695.339 209.974 696.052 209.827 696.643 209.531C697.24 209.23 697.694 208.807 698.007 208.261C698.325 207.716 698.484 207.071 698.484 206.327L699.234 206.438H694.734V203.659H702.038V205.858C702.038 207.392 701.714 208.71 701.066 209.812C700.419 210.909 699.527 211.756 698.39 212.352C697.254 212.943 695.953 213.239 694.487 213.239C692.85 213.239 691.413 212.878 690.174 212.156C688.936 211.429 687.97 210.398 687.277 209.062C686.589 207.722 686.245 206.131 686.245 204.29C686.245 202.875 686.45 201.614 686.859 200.506C687.274 199.392 687.853 198.449 688.598 197.676C689.342 196.903 690.208 196.315 691.197 195.912C692.186 195.509 693.257 195.307 694.41 195.307C695.399 195.307 696.319 195.452 697.172 195.741C698.024 196.026 698.779 196.429 699.439 196.952C700.103 197.474 700.646 198.097 701.066 198.818C701.487 199.534 701.757 200.324 701.876 201.188H698.126ZM710.708 213.256C709.361 213.256 708.202 212.983 707.23 212.438C706.265 211.886 705.52 211.108 704.998 210.102C704.475 209.091 704.213 207.895 704.213 206.514C704.213 205.168 704.475 203.986 704.998 202.969C705.52 201.952 706.256 201.159 707.205 200.591C708.159 200.023 709.279 199.739 710.563 199.739C711.426 199.739 712.23 199.878 712.975 200.156C713.725 200.429 714.378 200.841 714.935 201.392C715.498 201.943 715.935 202.636 716.248 203.472C716.56 204.301 716.716 205.273 716.716 206.386V207.384H705.662V205.134H713.299C713.299 204.611 713.185 204.148 712.958 203.744C712.73 203.341 712.415 203.026 712.012 202.798C711.614 202.565 711.151 202.449 710.623 202.449C710.071 202.449 709.583 202.577 709.157 202.832C708.736 203.082 708.407 203.42 708.168 203.847C707.929 204.267 707.807 204.736 707.801 205.253V207.392C707.801 208.04 707.921 208.599 708.159 209.071C708.404 209.543 708.748 209.906 709.191 210.162C709.634 210.418 710.159 210.545 710.767 210.545C711.171 210.545 711.54 210.489 711.875 210.375C712.211 210.261 712.498 210.091 712.736 209.864C712.975 209.636 713.157 209.358 713.282 209.028L716.64 209.25C716.469 210.057 716.12 210.761 715.591 211.364C715.069 211.96 714.392 212.426 713.563 212.761C712.739 213.091 711.787 213.256 710.708 213.256ZM726.049 199.909V202.636H718.165V199.909H726.049ZM719.955 196.773H723.586V208.977C723.586 209.312 723.637 209.574 723.739 209.761C723.841 209.943 723.983 210.071 724.165 210.145C724.353 210.219 724.569 210.256 724.813 210.256C724.983 210.256 725.154 210.241 725.324 210.213C725.495 210.179 725.625 210.153 725.716 210.136L726.287 212.838C726.105 212.895 725.85 212.96 725.52 213.034C725.191 213.114 724.79 213.162 724.319 213.179C723.444 213.213 722.676 213.097 722.017 212.83C721.364 212.562 720.855 212.148 720.492 211.585C720.128 211.023 719.949 210.312 719.955 209.455V196.773Z" fill="white"/>
</g>
<g filter="url(#filter8_bd_6_420)">
<rect x="611" y="269" width="190" height="85" rx="16" fill="url(#paint6_linear_6_420)" shape-rendering="crispEdges"/>
<rect x="611.5" y="269.5" width="189" height="84" rx="15.5" stroke="#F0F0F0" stroke-opacity="0.2" shape-rendering="crispEdges"/>
<path d="M697.287 310.565C697.218 309.878 696.926 309.344 696.409 308.963C695.892 308.582 695.19 308.392 694.304 308.392C693.701 308.392 693.193 308.477 692.778 308.648C692.363 308.812 692.045 309.043 691.824 309.338C691.608 309.634 691.5 309.969 691.5 310.344C691.488 310.656 691.554 310.929 691.696 311.162C691.843 311.395 692.045 311.597 692.301 311.767C692.556 311.932 692.852 312.077 693.187 312.202C693.522 312.321 693.88 312.423 694.261 312.509L695.829 312.884C696.591 313.054 697.289 313.281 697.926 313.565C698.562 313.849 699.113 314.199 699.579 314.614C700.045 315.028 700.406 315.517 700.662 316.08C700.923 316.642 701.056 317.287 701.062 318.014C701.056 319.082 700.784 320.009 700.244 320.793C699.71 321.571 698.937 322.176 697.926 322.608C696.92 323.034 695.707 323.247 694.287 323.247C692.877 323.247 691.65 323.031 690.605 322.599C689.565 322.168 688.752 321.528 688.167 320.682C687.588 319.83 687.284 318.776 687.255 317.52H690.826C690.866 318.105 691.034 318.594 691.329 318.986C691.63 319.372 692.031 319.665 692.531 319.864C693.037 320.057 693.608 320.153 694.244 320.153C694.869 320.153 695.412 320.062 695.872 319.881C696.338 319.699 696.699 319.446 696.954 319.122C697.21 318.798 697.338 318.426 697.338 318.006C697.338 317.614 697.221 317.284 696.988 317.017C696.761 316.75 696.426 316.523 695.983 316.335C695.545 316.148 695.008 315.977 694.372 315.824L692.471 315.347C691 314.989 689.838 314.429 688.985 313.668C688.133 312.906 687.71 311.881 687.716 310.591C687.71 309.534 687.991 308.611 688.559 307.821C689.133 307.031 689.92 306.415 690.92 305.972C691.92 305.528 693.056 305.307 694.329 305.307C695.625 305.307 696.755 305.528 697.721 305.972C698.693 306.415 699.449 307.031 699.988 307.821C700.528 308.611 700.806 309.526 700.824 310.565H697.287ZM709.442 323.256C708.096 323.256 706.936 322.983 705.965 322.438C704.999 321.886 704.255 321.108 703.732 320.102C703.209 319.091 702.948 317.895 702.948 316.514C702.948 315.168 703.209 313.986 703.732 312.969C704.255 311.952 704.99 311.159 705.939 310.591C706.894 310.023 708.013 309.739 709.297 309.739C710.161 309.739 710.965 309.878 711.709 310.156C712.459 310.429 713.113 310.841 713.669 311.392C714.232 311.943 714.669 312.636 714.982 313.472C715.294 314.301 715.451 315.273 715.451 316.386V317.384H704.397V315.134H712.033C712.033 314.611 711.919 314.148 711.692 313.744C711.465 313.341 711.15 313.026 710.746 312.798C710.348 312.565 709.885 312.449 709.357 312.449C708.806 312.449 708.317 312.577 707.891 312.832C707.471 313.082 707.141 313.42 706.902 313.847C706.664 314.267 706.542 314.736 706.536 315.253V317.392C706.536 318.04 706.655 318.599 706.894 319.071C707.138 319.543 707.482 319.906 707.925 320.162C708.368 320.418 708.894 320.545 709.502 320.545C709.905 320.545 710.275 320.489 710.61 320.375C710.945 320.261 711.232 320.091 711.471 319.864C711.709 319.636 711.891 319.358 712.016 319.028L715.374 319.25C715.203 320.057 714.854 320.761 714.326 321.364C713.803 321.96 713.127 322.426 712.297 322.761C711.473 323.091 710.522 323.256 709.442 323.256ZM724.783 309.909V312.636H716.9V309.909H724.783ZM718.689 306.773H722.32V318.977C722.32 319.312 722.371 319.574 722.473 319.761C722.576 319.943 722.718 320.071 722.9 320.145C723.087 320.219 723.303 320.256 723.547 320.256C723.718 320.256 723.888 320.241 724.059 320.213C724.229 320.179 724.36 320.153 724.451 320.136L725.022 322.838C724.84 322.895 724.584 322.96 724.255 323.034C723.925 323.114 723.525 323.162 723.053 323.179C722.178 323.213 721.411 323.097 720.752 322.83C720.098 322.562 719.59 322.148 719.226 321.585C718.863 321.023 718.684 320.312 718.689 319.455V306.773Z" fill="white"/>
</g>
</g>
<path d="M401 398L525.824 444.187C546.425 451.81 569.075 451.81 589.676 444.187L714.5 398" stroke="#F0F0F0" stroke-opacity="0.2" stroke-width="2" stroke-linejoin="round" stroke-dasharray="14 14"/>
<defs>
<filter id="filter0_bd_6_420" x="331" y="493" width="445" height="176" filterUnits="userSpaceOnUse" color-interpolation-filters="sRGB">
<feFlood flood-opacity="0" result="BackgroundImageFix"/>
<feGaussianBlur in="BackgroundImageFix" stdDeviation="3.5"/>
<feComposite in2="SourceAlpha" operator="in" result="effect1_backgroundBlur_6_420"/>
<feColorMatrix in="SourceAlpha" type="matrix" values="0 0 0 0 0 0 0 0 0 0 0 0 0 0 0 0 0 0 127 0" result="hardAlpha"/>
<feMorphology radius="5" operator="dilate" in="SourceAlpha" result="effect2_dropShadow_6_420"/>
<feOffset dx="-4" dy="9"/>
<feGaussianBlur stdDeviation="4"/>
<feComposite in2="hardAlpha" operator="out"/>
<feColorMatrix type="matrix" values="0 0 0 0 0 0 0 0 0 0 0 0 0 0 0 0 0 0 0.2 0"/>
<feBlend mode="normal" in2="effect1_backgroundBlur_6_420" result="effect2_dropShadow_6_420"/>
<feBlend mode="normal" in="SourceGraphic" in2="effect2_dropShadow_6_420" result="shape"/>
</filter>
<filter id="filter1_d_6_420" x="13" y="4" width="512" height="358" filterUnits="userSpaceOnUse" color-interpolation-filters="sRGB">
<feFlood flood-opacity="0" result="BackgroundImageFix"/>
<feColorMatrix in="SourceAlpha" type="matrix" values="0 0 0 0 0 0 0 0 0 0 0 0 0 0 0 0 0 0 127 0" result="hardAlpha"/>
<feOffset dy="4"/>
<feGaussianBlur stdDeviation="2"/>
<feComposite in2="hardAlpha" operator="out"/>
<feColorMatrix type="matrix" values="0 0 0 0 0 0 0 0 0 0 0 0 0 0 0 0 0 0 0.25 0"/>
<feBlend mode="normal" in2="BackgroundImageFix" result="effect1_dropShadow_6_420"/>
<feBlend mode="normal" in="SourceGraphic" in2="effect1_dropShadow_6_420" result="shape"/>
</filter>
<filter id="filter2_bd_6_420" x="0" y="-3" width="530" height="206" filterUnits="userSpaceOnUse" color-interpolation-filters="sRGB">
<feFlood flood-opacity="0" result="BackgroundImageFix"/>
<feGaussianBlur in="BackgroundImageFix" stdDeviation="3.5"/>
<feComposite in2="SourceAlpha" operator="in" result="effect1_backgroundBlur_6_420"/>
<feColorMatrix in="SourceAlpha" type="matrix" values="0 0 0 0 0 0 0 0 0 0 0 0 0 0 0 0 0 0 127 0" result="hardAlpha"/>
<feMorphology radius="5" operator="dilate" in="SourceAlpha" result="effect2_dropShadow_6_420"/>
<feOffset dx="-4" dy="9"/>
<feGaussianBlur stdDeviation="4"/>
<feComposite in2="hardAlpha" operator="out"/>
<feColorMatrix type="matrix" values="0 0 0 0 0 0 0 0 0 0 0 0 0 0 0 0 0 0 0.2 0"/>
<feBlend mode="normal" in2="effect1_backgroundBlur_6_420" result="effect2_dropShadow_6_420"/>
<feBlend mode="normal" in="SourceGraphic" in2="effect2_dropShadow_6_420" result="shape"/>
</filter>
<filter id="filter3_bd_6_420" x="286" y="152" width="216" height="114" filterUnits="userSpaceOnUse" color-interpolation-filters="sRGB">
<feFlood flood-opacity="0" result="BackgroundImageFix"/>
<feGaussianBlur in="BackgroundImageFix" stdDeviation="3.5"/>
<feComposite in2="SourceAlpha" operator="in" result="effect1_backgroundBlur_6_420"/>
<feColorMatrix in="SourceAlpha" type="matrix" values="0 0 0 0 0 0 0 0 0 0 0 0 0 0 0 0 0 0 127 0" result="hardAlpha"/>
<feMorphology radius="5" operator="dilate" in="SourceAlpha" result="effect2_dropShadow_6_420"/>
<feOffset dx="-4" dy="9"/>
<feGaussianBlur stdDeviation="4"/>
<feComposite in2="hardAlpha" operator="out"/>
<feColorMatrix type="matrix" values="0 0 0 0 0 0 0 0 0 0 0 0 0 0 0 0 0 0 0.2 0"/>
<feBlend mode="normal" in2="effect1_backgroundBlur_6_420" result="effect2_dropShadow_6_420"/>
<feBlend mode="normal" in="SourceGraphic" in2="effect2_dropShadow_6_420" result="shape"/>
</filter>
<filter id="filter4_bd_6_420" x="286" y="262" width="216" height="114" filterUnits="userSpaceOnUse" color-interpolation-filters="sRGB">
<feFlood flood-opacity="0" result="BackgroundImageFix"/>
<feGaussianBlur in="BackgroundImageFix" stdDeviation="3.5"/>
<feComposite in2="SourceAlpha" operator="in" result="effect1_backgroundBlur_6_420"/>
<feColorMatrix in="SourceAlpha" type="matrix" values="0 0 0 0 0 0 0 0 0 0 0 0 0 0 0 0 0 0 127 0" result="hardAlpha"/>
<feMorphology radius="5" operator="dilate" in="SourceAlpha" result="effect2_dropShadow_6_420"/>
<feOffset dx="-4" dy="9"/>
<feGaussianBlur stdDeviation="4"/>
<feComposite in2="hardAlpha" operator="out"/>
<feColorMatrix type="matrix" values="0 0 0 0 0 0 0 0 0 0 0 0 0 0 0 0 0 0 0.2 0"/>
<feBlend mode="normal" in2="effect1_backgroundBlur_6_420" result="effect2_dropShadow_6_420"/>
<feBlend mode="normal" in="SourceGraphic" in2="effect2_dropShadow_6_420" result="shape"/>
</filter>
<filter id="filter5_d_6_420" x="572" y="4" width="512" height="358" filterUnits="userSpaceOnUse" color-interpolation-filters="sRGB">
<feFlood flood-opacity="0" result="BackgroundImageFix"/>
<feColorMatrix in="SourceAlpha" type="matrix" values="0 0 0 0 0 0 0 0 0 0 0 0 0 0 0 0 0 0 127 0" result="hardAlpha"/>
<feOffset dy="4"/>
<feGaussianBlur stdDeviation="2"/>
<feComposite in2="hardAlpha" operator="out"/>
<feColorMatrix type="matrix" values="0 0 0 0 0 0 0 0 0 0 0 0 0 0 0 0 0 0 0.25 0"/>
<feBlend mode="normal" in2="BackgroundImageFix" result="effect1_dropShadow_6_420"/>
<feBlend mode="normal" in="SourceGraphic" in2="effect1_dropShadow_6_420" result="shape"/>
</filter>
<filter id="filter6_bd_6_420" x="559" y="-3" width="530" height="206" filterUnits="userSpaceOnUse" color-interpolation-filters="sRGB">
<feFlood flood-opacity="0" result="BackgroundImageFix"/>
<feGaussianBlur in="BackgroundImageFix" stdDeviation="3.5"/>
<feComposite in2="SourceAlpha" operator="in" result="effect1_backgroundBlur_6_420"/>
<feColorMatrix in="SourceAlpha" type="matrix" values="0 0 0 0 0 0 0 0 0 0 0 0 0 0 0 0 0 0 127 0" result="hardAlpha"/>
<feMorphology radius="5" operator="dilate" in="SourceAlpha" result="effect2_dropShadow_6_420"/>
<feOffset dx="-4" dy="9"/>
<feGaussianBlur stdDeviation="4"/>
<feComposite in2="hardAlpha" operator="out"/>
<feColorMatrix type="matrix" values="0 0 0 0 0 0 0 0 0 0 0 0 0 0 0 0 0 0 0.2 0"/>
<feBlend mode="normal" in2="effect1_backgroundBlur_6_420" result="effect2_dropShadow_6_420"/>
<feBlend mode="normal" in="SourceGraphic" in2="effect2_dropShadow_6_420" result="shape"/>
</filter>
<filter id="filter7_bd_6_420" x="594" y="152" width="216" height="114" filterUnits="userSpaceOnUse" color-interpolation-filters="sRGB">
<feFlood flood-opacity="0" result="BackgroundImageFix"/>
<feGaussianBlur in="BackgroundImageFix" stdDeviation="3.5"/>
<feComposite in2="SourceAlpha" operator="in" result="effect1_backgroundBlur_6_420"/>
<feColorMatrix in="SourceAlpha" type="matrix" values="0 0 0 0 0 0 0 0 0 0 0 0 0 0 0 0 0 0 127 0" result="hardAlpha"/>
<feMorphology radius="5" operator="dilate" in="SourceAlpha" result="effect2_dropShadow_6_420"/>
<feOffset dx="-4" dy="9"/>
<feGaussianBlur stdDeviation="4"/>
<feComposite in2="hardAlpha" operator="out"/>
<feColorMatrix type="matrix" values="0 0 0 0 0 0 0 0 0 0 0 0 0 0 0 0 0 0 0.2 0"/>
<feBlend mode="normal" in2="effect1_backgroundBlur_6_420" result="effect2_dropShadow_6_420"/>
<feBlend mode="normal" in="SourceGraphic" in2="effect2_dropShadow_6_420" result="shape"/>
</filter>
<filter id="filter8_bd_6_420" x="594" y="262" width="216" height="114" filterUnits="userSpaceOnUse" color-interpolation-filters="sRGB">
<feFlood flood-opacity="0" result="BackgroundImageFix"/>
<feGaussianBlur in="BackgroundImageFix" stdDeviation="3.5"/>
<feComposite in2="SourceAlpha" operator="in" result="effect1_backgroundBlur_6_420"/>
<feColorMatrix in="SourceAlpha" type="matrix" values="0 0 0 0 0 0 0 0 0 0 0 0 0 0 0 0 0 0 127 0" result="hardAlpha"/>
<feMorphology radius="5" operator="dilate" in="SourceAlpha" result="effect2_dropShadow_6_420"/>
<feOffset dx="-4" dy="9"/>
<feGaussianBlur stdDeviation="4"/>
<feComposite in2="hardAlpha" operator="out"/>
<feColorMatrix type="matrix" values="0 0 0 0 0 0 0 0 0 0 0 0 0 0 0 0 0 0 0.2 0"/>
<feBlend mode="normal" in2="effect1_backgroundBlur_6_420" result="effect2_dropShadow_6_420"/>
<feBlend mode="normal" in="SourceGraphic" in2="effect2_dropShadow_6_420" result="shape"/>
</filter>
<linearGradient id="paint0_linear_6_420" x1="334.831" y1="595.391" x2="763.434" y2="486.026" gradientUnits="userSpaceOnUse">
<stop stop-opacity="0.1"/>
<stop offset="1" stop-opacity="0.05"/>
</linearGradient>
<linearGradient id="paint1_linear_6_420" x1="1.15963" y1="118.858" x2="516.775" y2="-12.5758" gradientUnits="userSpaceOnUse">
<stop stop-opacity="0.1"/>
<stop offset="1" stop-opacity="0.05"/>
</linearGradient>
<linearGradient id="paint2_linear_6_420" x1="297.028" y1="214.158" x2="496.067" y2="174.329" gradientUnits="userSpaceOnUse">
<stop stop-opacity="0.1"/>
<stop offset="1" stop-opacity="0.05"/>
</linearGradient>
<linearGradient id="paint3_linear_6_420" x1="297.028" y1="324.158" x2="496.067" y2="284.329" gradientUnits="userSpaceOnUse">
<stop stop-opacity="0.1"/>
<stop offset="1" stop-opacity="0.05"/>
</linearGradient>
<linearGradient id="paint4_linear_6_420" x1="560.16" y1="118.858" x2="1075.77" y2="-12.5758" gradientUnits="userSpaceOnUse">
<stop stop-opacity="0.1"/>
<stop offset="1" stop-opacity="0.05"/>
</linearGradient>
<linearGradient id="paint5_linear_6_420" x1="605.028" y1="214.158" x2="804.067" y2="174.329" gradientUnits="userSpaceOnUse">
<stop stop-opacity="0.1"/>
<stop offset="1" stop-opacity="0.05"/>
</linearGradient>
<linearGradient id="paint6_linear_6_420" x1="605.028" y1="324.158" x2="804.067" y2="284.329" gradientUnits="userSpaceOnUse">
<stop stop-opacity="0.1"/>
<stop offset="1" stop-opacity="0.05"/>
</linearGradient>
</defs>
</svg>
