<svg width="84" height="32" viewBox="0 0 84 32" fill="none" xmlns="http://www.w3.org/2000/svg">
<path d="M41.7082 0L0 9.94269V32H83.4164V9.94269L41.7082 0ZM16.5796 16.1729H11.5897V15.1149C11.5897 14.9975 11.5307 14.9385 11.4132 14.9385H10.2284C10.1109 14.9385 10.0519 14.9975 10.0519 15.1149V23.0751C10.0519 23.1925 10.1103 23.2515 10.2284 23.2515H11.4634L11.5891 23.1259V20.0518H10.8583L11.5891 18.1631H16.579V27.0048H7.55664C6.71603 27.0048 6.09029 26.8537 5.67884 26.5516C5.2668 26.2495 5.06137 25.7793 5.06137 25.1408V13.906L16.5784 11.1605V16.1735L16.5796 16.1729ZM29.4326 27.0048H24.4426V21.1103L24.3169 20.984H23.0318L22.9055 21.1103V27.0048H17.9155V13.0746C17.9155 11.7984 18.7473 11.1599 20.4108 11.1599H26.9379C28.6014 11.1599 29.4326 11.7984 29.4326 13.0746V27.0048ZM42.2094 27.0048H37.2194V20.7327C37.2194 20.6153 37.1604 20.5563 37.0429 20.5563H35.808L35.6823 20.6825V27.0053H30.6923V11.1605H39.7147C41.3611 11.1605 42.1846 11.7989 42.1846 13.0752V17.7607C42.1846 18.4492 41.7897 18.844 41.0004 18.9449V19.1968C41.4201 19.2641 41.7271 19.3945 41.9201 19.5874C42.1132 19.7809 42.21 20.0535 42.21 20.4058V27.0053L42.2094 27.0048ZM54.9868 27.0048H49.9968V21.1103L49.8711 20.984H48.586L48.4597 21.1103V27.0048H43.4697V13.0746C43.4697 11.7984 44.3015 11.1599 45.965 11.1599H52.4921C54.1556 11.1599 54.9868 11.7984 54.9868 13.0746V27.0048ZM67.7636 16.1729H62.7737V15.1149C62.7737 14.9975 62.7146 14.9385 62.5972 14.9385H61.413C61.2955 14.9385 61.2365 14.9975 61.2365 15.1149V23.0751C61.2365 23.1925 61.2949 23.2515 61.413 23.2515H62.6479L62.7737 23.1259V20.0518H62.0428L62.7737 18.1631H67.7636V27.0048H58.7412C57.9012 27.0048 57.2754 26.8537 56.864 26.5516C56.452 26.2495 56.2465 25.7793 56.2465 25.1408V13.0752C56.2465 11.7989 57.0783 11.1605 58.7412 11.1605H65.2683C66.9318 11.1605 67.763 11.7989 67.763 13.0752V16.1735L67.7636 16.1729ZM78.4991 27.0048H69.0989V11.665L78.4737 13.8995V14.9385H74.2146L74.0888 15.0642V17.0792L74.2146 17.2054H78.4235V20.984H74.2146L74.0888 21.1103V23.1253L74.2146 23.2509H78.4991V27.0042V27.0048Z" fill="white"/>
<path d="M49.8205 14.9402H48.6357C48.5183 14.9402 48.4592 14.9992 48.4592 15.1166V17.0814L48.5856 17.2077H49.8707L49.9964 17.0814V15.1166C49.9964 14.9992 49.9374 14.9402 49.8199 14.9402H49.8205Z" fill="white"/>
<path d="M37.0455 14.9408H35.8106L35.6848 15.0665V17.4844L35.8106 17.6107H37.0455C37.163 17.6107 37.222 17.5523 37.222 17.4343V15.1166C37.222 14.9992 37.163 14.9402 37.0455 14.9402V14.9408Z" fill="white"/>
<path d="M24.2668 14.9402H23.082C22.9645 14.9402 22.9055 14.9992 22.9055 15.1166V17.0814L23.0318 17.2077H24.317L24.4427 17.0814V15.1166C24.4427 14.9992 24.3837 14.9402 24.2662 14.9402H24.2668Z" fill="white"/>
</svg>
