<svg width="21" height="20" viewBox="0 0 21 20" fill="none" xmlns="http://www.w3.org/2000/svg">
<g clipPath="url(#clip0_12678_19983)">
<path d="M9.25228 2.5V4.16667H5.08561V15.8333H16.7523V11.6667H18.4189V16.6667C18.4189 16.8877 18.3311 17.0996 18.1749 17.2559C18.0186 17.4122 17.8066 17.5 17.5856 17.5H4.25228C4.03126 17.5 3.8193 17.4122 3.66302 17.2559C3.50674 17.0996 3.41895 16.8877 3.41895 16.6667V3.33333C3.41895 3.11232 3.50674 2.90036 3.66302 2.74408C3.8193 2.5878 4.03126 2.5 4.25228 2.5H9.25228ZM15.5739 4.16667H11.7523V2.5H18.4189V9.16667H16.7523V5.345L10.9189 11.1783L9.74061 10L15.5739 4.16667Z" fill="#B68F40"/>
</g>
<defs>
<clipPath id="clip0_12678_19983">
<rect width="20" height="20" fill="white" transform="translate(0.918945)"/>
</clipPath>
</defs>
</svg>
