<svg width="17" height="16" viewBox="0 0 17 16" fill="none" xmlns="http://www.w3.org/2000/svg">
<path d="M5.16732 4.66634V1.99967C5.16732 1.82286 5.23756 1.65329 5.36258 1.52827C5.4876 1.40325 5.65717 1.33301 5.83398 1.33301H14.5007C14.6775 1.33301 14.847 1.40325 14.9721 1.52827C15.0971 1.65329 15.1673 1.82286 15.1673 1.99967V10.6663C15.1673 10.8432 15.0971 11.0127 14.9721 11.1377C14.847 11.2628 14.6775 11.333 14.5007 11.333H11.834V13.995C11.834 14.3657 11.5347 14.6663 11.1627 14.6663H2.50532C2.41713 14.6664 2.3298 14.6491 2.24831 14.6154C2.16682 14.5817 2.09277 14.5323 2.03042 14.4699C1.96806 14.4076 1.91861 14.3335 1.88491 14.252C1.8512 14.1705 1.8339 14.0832 1.83398 13.995L1.83598 5.33767C1.83598 4.96701 2.13532 4.66634 2.50732 4.66634H5.16732ZM6.50065 4.66634H11.1627C11.5333 4.66634 11.834 4.96567 11.834 5.33767V9.99967H13.834V2.66634H6.50065V4.66634ZM3.16932 5.99967L3.16732 13.333H10.5007V5.99967H3.16932Z" fill="#32C8D9"/>
</svg>
