<svg width="39" height="10" viewBox="0 0 39 10" fill="none" xmlns="http://www.w3.org/2000/svg">
<mask id="mask0_10967_30660" style="mask-type:luminance" maskUnits="userSpaceOnUse" x="0" y="0" width="39" height="10">
<path d="M38.5258 0.700195H0.119141V9.38168H38.5258V0.700195Z" fill="white"/>
</mask>
<g mask="url(#mask0_10967_30660)">
<path d="M17.9092 8.74498V0.700195H19.0244V8.26549H23.3873L23.3627 0.708397L24.5029 0.700195V8.74498C24.5029 8.82859 24.4864 8.91141 24.4544 8.98868C24.4224 9.06594 24.3755 9.13614 24.3163 9.19525C24.2572 9.25438 24.187 9.30129 24.1097 9.33326C24.0325 9.36526 23.9496 9.3817 23.866 9.38168H18.5451C18.3764 9.38145 18.2146 9.31428 18.0954 9.1949C17.9762 9.07552 17.9092 8.9137 17.9092 8.74498Z" fill="#F5F5F5"/>
<path d="M32.9121 8.74498V0.700195H34.0273V8.26549H38.5251V9.38168H33.5488C33.3799 9.38168 33.2179 9.31461 33.0986 9.1952C32.9791 9.07579 32.9121 8.91384 32.9121 8.74498Z" fill="#F5F5F5"/>
<path d="M11.0342 9.38168H12.1496V5.61143H16.3517V4.49524H12.1486V1.81639H16.2823C16.3425 1.81639 16.4014 1.79933 16.4523 1.76718C16.5032 1.73503 16.5439 1.68911 16.5697 1.63475L17.014 0.700195H11.6699C11.5012 0.700513 11.3396 0.767729 11.2204 0.887094C11.1012 1.00646 11.0342 1.16823 11.0342 1.33691V9.38168Z" fill="#F5F5F5"/>
<path d="M25.7188 1.33691C25.7188 1.25329 25.7354 1.1705 25.7674 1.09325C25.7994 1.016 25.8462 0.945807 25.9053 0.886683C25.9646 0.827559 26.0348 0.780659 26.1119 0.748662C26.189 0.716664 26.2719 0.700195 26.3555 0.700195H31.6988L31.2543 1.63475C31.2285 1.68913 31.1878 1.73506 31.137 1.76721C31.0861 1.79936 31.0271 1.81641 30.9671 1.81639H26.8339V4.49524H31.0363V5.61143H26.8339V8.26549H31.6988V9.38168H26.3555C26.1868 9.38168 26.0248 9.31461 25.9053 9.1952C25.786 9.07579 25.7188 8.91384 25.7188 8.74498V1.33691Z" fill="#F5F5F5"/>
<path d="M0.696439 0.700195C0.543365 0.700195 0.396556 0.76099 0.288298 0.869211C0.180039 0.977432 0.119194 1.12422 0.119141 1.27729V9.38168H7.30217C7.54525 9.38165 7.77836 9.28509 7.95028 9.11322L8.53217 8.53134C8.61729 8.44623 8.68481 8.34518 8.73087 8.23398C8.77693 8.12279 8.80062 8.00358 8.80062 7.88323V0.700195H0.696439Z" fill="#00F48B"/>
<path d="M5.78864 1.81641L2.96538 4.6397C2.89525 4.7097 2.8002 4.74906 2.70111 4.74911C2.63034 4.74911 2.56101 4.72899 2.50121 4.69114C2.4414 4.65329 2.39356 4.59924 2.36327 4.53527L1.26948 2.22267C1.24897 2.17928 1.23977 2.13141 1.24273 2.08351C1.24569 2.03561 1.26071 1.98923 1.2864 1.94869C1.31209 1.90815 1.34761 1.87477 1.38966 1.85164C1.43171 1.82851 1.47893 1.81639 1.52692 1.81641H5.78864Z" fill="black"/>
<path d="M1.23438 8.26525V5.51819C1.23443 5.44782 1.26242 5.38035 1.31219 5.33062C1.36197 5.28088 1.42946 5.25293 1.49982 5.25293H4.2467L1.23438 8.26525Z" fill="black"/>
<path d="M4.475 4.74911H3.56543L6.30211 2.01264C6.36426 1.95044 6.43808 1.90109 6.51932 1.86742C6.60057 1.83375 6.68764 1.81642 6.77559 1.81641H7.68494L4.94849 4.55308C4.82283 4.67854 4.65255 4.74904 4.475 4.74911Z" fill="black"/>
</g>
</svg>
