<svg width="21" height="21" viewBox="0 0 21 21" fill="none" xmlns="http://www.w3.org/2000/svg">
<path d="M9.25228 3.38574V5.05241H5.08561V16.7191H16.7523V12.5524H18.4189V17.5524C18.4189 17.7734 18.3311 17.9854 18.1749 18.1417C18.0186 18.2979 17.8066 18.3857 17.5856 18.3857H4.25228C4.03126 18.3857 3.8193 18.2979 3.66302 18.1417C3.50674 17.9854 3.41895 17.7734 3.41895 17.5524V4.21908C3.41895 3.99806 3.50674 3.7861 3.66302 3.62982C3.8193 3.47354 4.03126 3.38574 4.25228 3.38574H9.25228ZM15.5739 5.05241H11.7523V3.38574H18.4189V10.0524H16.7523V6.23074L10.9189 12.0641L9.74061 10.8857L15.5739 5.05241Z" fill="#39A2AE"/>
</svg>
