<svg width="21" height="20" viewBox="0 0 21 20" fill="none" xmlns="http://www.w3.org/2000/svg">
<path d="M12.0379 14.3894L9.31955 17.1077C8.53032 17.8758 7.47039 18.3024 6.36909 18.295C5.26779 18.2876 4.21367 17.8469 3.43481 17.0683C2.65594 16.2896 2.21496 15.2356 2.20727 14.1343C2.19958 13.033 2.6258 11.973 3.39372 11.1835L6.11205 8.46271C6.26831 8.30634 6.35605 8.0943 6.35597 7.87325C6.35589 7.65219 6.268 7.44021 6.11163 7.28396C5.95527 7.1277 5.74323 7.03996 5.52217 7.04004C5.30111 7.04012 5.08914 7.12801 4.93288 7.28437L2.21538 10.0052C1.11728 11.1039 0.500586 12.5937 0.500977 14.1471C0.501367 15.7004 1.11881 17.19 2.21747 18.2881C3.31613 19.3862 4.80601 20.0029 6.35936 20.0025C7.91271 20.0021 9.40228 19.3847 10.5004 18.286L13.2187 15.5677C13.3705 15.4105 13.4545 15.2 13.4526 14.9815C13.4507 14.763 13.3631 14.554 13.2086 14.3995C13.0541 14.245 12.845 14.1574 12.6266 14.1555C12.4081 14.1536 12.1976 14.2376 12.0404 14.3894H12.0379Z" fill="#1E1F22"/>
<path d="M18.7867 1.71752C18.2445 1.17153 17.5992 0.738586 16.8884 0.443767C16.1776 0.148948 15.4154 -0.00188038 14.6459 2.0534e-05C13.8768 -0.00202257 13.1149 0.148419 12.4043 0.442647C11.6937 0.736874 11.0484 1.16905 10.5059 1.71419L7.7834 4.43335C7.62703 4.58961 7.53914 4.80158 7.53906 5.02264C7.53898 5.2437 7.62672 5.45574 7.78298 5.6121C7.93924 5.76847 8.15121 5.85636 8.37227 5.85644C8.59333 5.85652 8.80536 5.76878 8.96173 5.61252L11.6826 2.89419C12.0705 2.50389 12.5321 2.19444 13.0404 1.98374C13.5488 1.77303 14.0939 1.66527 14.6442 1.66669C15.4728 1.66696 16.2827 1.91288 16.9715 2.37335C17.6603 2.83383 18.1971 3.48818 18.5141 4.2537C18.8311 5.01922 18.914 5.86154 18.7523 6.67417C18.5907 7.4868 18.1917 8.23326 17.6059 8.81919L14.8876 11.5375C14.7312 11.6939 14.6434 11.906 14.6434 12.1271C14.6434 12.3482 14.7312 12.5603 14.8876 12.7167C15.0439 12.8731 15.256 12.9609 15.4771 12.9609C15.6983 12.9609 15.9104 12.8731 16.0667 12.7167L18.7851 10C19.8818 8.90093 20.4978 7.41177 20.4981 5.85912C20.4985 4.30646 19.883 2.81705 18.7867 1.71752Z" fill="#1E1F22"/>
<path d="M12.4107 6.91068L7.41066 11.9107C7.33107 11.9876 7.26758 12.0795 7.22391 12.1812C7.18023 12.2829 7.15724 12.3922 7.15628 12.5029C7.15532 12.6135 7.1764 12.7232 7.21831 12.8256C7.26021 12.9281 7.32208 13.0211 7.40033 13.0993C7.47857 13.1776 7.57161 13.2395 7.67403 13.2814C7.77644 13.3233 7.88617 13.3444 7.99682 13.3434C8.10747 13.3424 8.21682 13.3194 8.31849 13.2758C8.42016 13.2321 8.51212 13.1686 8.58899 13.089L13.589 8.08902C13.7408 7.93185 13.8248 7.72135 13.8229 7.50285C13.821 7.28435 13.7333 7.07534 13.5788 6.92084C13.4243 6.76633 13.2153 6.67869 12.9968 6.67679C12.7783 6.67489 12.5678 6.75889 12.4107 6.91068Z" fill="#1E1F22"/>
</svg>
