<svg width="20" height="21" viewBox="0 0 20 21" fill="none" xmlns="http://www.w3.org/2000/svg">
<path d="M11.5374 15.0237L8.81906 17.742C8.02983 18.5101 6.9699 18.9366 5.8686 18.9293C4.7673 18.9219 3.71319 18.4812 2.93432 17.7025C2.15546 16.9239 1.71447 15.8699 1.70678 14.7686C1.69909 13.6673 2.12531 12.6073 2.89323 11.8178L5.61156 9.09698C5.76782 8.94062 5.85556 8.72858 5.85548 8.50752C5.8554 8.28646 5.76751 8.07449 5.61115 7.91824C5.45478 7.76198 5.24274 7.67424 5.02168 7.67432C4.80063 7.67439 4.58865 7.76228 4.4324 7.91865L1.7149 10.6395C0.616788 11.7381 9.77544e-05 13.228 0.000488467 14.7814C0.000879179 16.3347 0.618319 17.8243 1.71698 18.9224C2.81564 20.0205 4.30552 20.6372 5.85887 20.6368C7.41222 20.6364 8.90179 20.019 9.9999 18.9203L12.7182 16.202C12.87 16.0448 12.954 15.8343 12.9521 15.6158C12.9502 15.3973 12.8626 15.1883 12.7081 15.0338C12.5536 14.8793 12.3446 14.7917 12.1261 14.7898C11.9076 14.7879 11.6971 14.8719 11.5399 15.0237H11.5374Z" fill="#1E1F22"/>
<path d="M18.2867 2.35204C17.7445 1.80605 17.0992 1.37311 16.3884 1.07829C15.6776 0.78347 14.9154 0.632641 14.1459 0.634542C13.3768 0.632499 12.6149 0.78294 11.9043 1.07717C11.1937 1.3714 10.5484 1.80357 10.0059 2.34871L7.2834 5.06788C7.12703 5.22413 7.03914 5.43611 7.03906 5.65716C7.03898 5.87822 7.12672 6.09026 7.28298 6.24663C7.43924 6.40299 7.65121 6.49088 7.87227 6.49096C8.09333 6.49104 8.30536 6.4033 8.46173 6.24704L11.1826 3.52871C11.5705 3.13842 12.0321 2.82896 12.5404 2.61826C13.0488 2.40756 13.5939 2.29979 14.1442 2.30121C14.9728 2.30148 15.7827 2.5474 16.4715 3.00787C17.1603 3.46835 17.6971 4.12271 18.0141 4.88823C18.3311 5.65375 18.414 6.49606 18.2523 7.30869C18.0907 8.12132 17.6917 8.86778 17.1059 9.45371L14.3876 12.172C14.2312 12.3284 14.1434 12.5405 14.1434 12.7616C14.1434 12.9828 14.2312 13.1948 14.3876 13.3512C14.5439 13.5076 14.756 13.5954 14.9771 13.5954C15.1983 13.5954 15.4104 13.5076 15.5667 13.3512L18.2851 10.6345C19.3818 9.53546 19.9978 8.04629 19.9981 6.49364C19.9985 4.94098 19.383 3.45157 18.2867 2.35204Z" fill="#1E1F22"/>
<path d="M11.9107 7.54545L6.91066 12.5454C6.83107 12.6223 6.76758 12.7143 6.72391 12.8159C6.68023 12.9176 6.65724 13.027 6.65628 13.1376C6.65532 13.2483 6.6764 13.358 6.71831 13.4604C6.76021 13.5628 6.82208 13.6559 6.90033 13.7341C6.97857 13.8124 7.07161 13.8742 7.17403 13.9161C7.27644 13.958 7.38617 13.9791 7.49682 13.9782C7.60747 13.9772 7.71682 13.9542 7.81849 13.9105C7.92016 13.8669 8.01212 13.8034 8.08899 13.7238L13.089 8.72378C13.2408 8.56661 13.3248 8.35611 13.3229 8.13762C13.321 7.91912 13.2333 7.71011 13.0788 7.5556C12.9243 7.40109 12.7153 7.31345 12.4968 7.31155C12.2783 7.30966 12.0678 7.39365 11.9107 7.54545Z" fill="#1E1F22"/>
</svg>
