<svg width="12" height="15" viewBox="0 0 12 15" fill="none" xmlns="http://www.w3.org/2000/svg">
<path d="M11.3333 14.1663H0.666667C0.489856 14.1663 0.320286 14.0961 0.195262 13.9711C0.0702379 13.8461 0 13.6765 0 13.4997V1.49967C0 1.32286 0.0702379 1.15329 0.195262 1.02827C0.320286 0.903246 0.489856 0.833008 0.666667 0.833008H11.3333C11.5101 0.833008 11.6797 0.903246 11.8047 1.02827C11.9298 1.15329 12 1.32286 12 1.49967V13.4997C12 13.6765 11.9298 13.8461 11.8047 13.9711C11.6797 14.0961 11.5101 14.1663 11.3333 14.1663ZM10.6667 12.833V2.16634H1.33333V12.833H10.6667ZM3.33333 4.16634H8.66667V5.49967H3.33333V4.16634ZM3.33333 6.83301H8.66667V8.16634H3.33333V6.83301ZM3.33333 9.49967H8.66667V10.833H3.33333V9.49967Z" fill="#39A2AE"/>
</svg>
