<svg width="16" height="17" viewBox="0 0 16 17" fill="none" xmlns="http://www.w3.org/2000/svg">
<path d="M3.33268 15.1663C3.15587 15.1663 2.9863 15.0961 2.86128 14.9711C2.73625 14.8461 2.66602 14.6765 2.66602 14.4997V2.49967C2.66602 2.32286 2.73625 2.15329 2.86128 2.02827C2.9863 1.90325 3.15587 1.83301 3.33268 1.83301H12.666C12.8428 1.83301 13.0124 1.90325 13.1374 2.02827C13.2624 2.15329 13.3327 2.32286 13.3327 2.49967V4.49967H11.9993V3.16634H3.99935V13.833H11.9993V12.4997H13.3327V14.4997C13.3327 14.6765 13.2624 14.8461 13.1374 14.9711C13.0124 15.0961 12.8428 15.1663 12.666 15.1663H3.33268ZM11.9993 11.1663V9.16634H7.33268V7.83301H11.9993V5.83301L15.3327 8.49967L11.9993 11.1663Z" fill="#39A2AE"/>
</svg>
