<svg width="1288" height="455" viewBox="0 0 1288 455" fill="none" xmlns="http://www.w3.org/2000/svg">
<path d="M858.75 321.92V306.19C858.75 299.15 860.63 293.72 864.39 289.91C868.15 286.1 873.82 284.19 881.42 284.19C887.32 284.19 893.38 285.25 899.6 287.38V262.96C899.6 262.23 899.75 261.71 900.06 261.42C900.37 261.13 900.9 260.98 901.67 260.98H905.24C906.08 260.98 906.64 261.11 906.91 261.36C907.18 261.62 907.31 262.15 907.31 262.95V334.67C907.31 336.43 907.02 337.68 906.45 338.41C905.87 339.14 904.67 339.88 902.83 340.61C897.38 342.81 890.75 343.91 882.93 343.91C866.82 343.91 858.77 336.58 858.77 321.91L858.75 321.92ZM883.6 337.21C888.74 337.21 893.34 336.51 897.41 335.12C898.41 334.75 899.02 334.41 899.25 334.08C899.48 333.75 899.59 333.14 899.59 332.26V294.31C897.06 293.36 894.49 292.55 891.88 291.89C889.27 291.23 886.24 290.9 882.79 290.9C871.9 290.9 866.45 296.07 866.45 306.41V321.81C866.45 332.08 872.16 337.21 883.59 337.21H883.6Z" fill="#39A2AE"/>
<path d="M930.14 338.53C925.65 334.94 923.41 330.02 923.41 323.79V304.43C923.41 298.12 925.65 293.17 930.14 289.58C934.63 285.99 940.78 284.19 948.6 284.19C956.42 284.19 962.69 285.99 967.18 289.58C971.67 293.17 973.91 298.12 973.91 304.43V323.79C973.91 330.1 971.67 335.03 967.18 338.58C962.69 342.14 956.5 343.91 948.6 343.91C940.7 343.91 934.62 342.11 930.14 338.52V338.53ZM935.84 333.69C938.98 336.11 943.24 337.32 948.61 337.32C953.98 337.32 958.35 336.11 961.5 333.69C964.64 331.27 966.22 327.97 966.22 323.79V304.32C966.22 300.14 964.65 296.86 961.5 294.47C958.35 292.09 954.06 290.89 948.61 290.89C943.16 290.89 938.98 292.08 935.84 294.47C932.69 296.85 931.12 300.14 931.12 304.32V323.79C931.12 327.97 932.69 331.27 935.84 333.69Z" fill="#39A2AE"/>
<path d="M990.481 341.94C990.171 341.65 990.021 341.13 990.021 340.4V293.98C990.021 292.29 990.33 291.01 990.94 290.13C991.55 289.25 992.701 288.44 994.391 287.71C999.761 285.36 1005.97 284.19 1013.03 284.19C1020.09 284.19 1024.88 285.77 1028.33 288.92C1031.09 287.67 1034.08 286.57 1037.3 285.62C1040.52 284.67 1044.55 284.19 1049.38 284.19C1056.67 284.19 1062.05 285.95 1065.54 289.47C1069.03 292.99 1070.77 298.2 1070.77 305.09V340.4C1070.77 341.13 1070.61 341.65 1070.31 341.94C1070 342.23 1069.46 342.38 1068.7 342.38H1065.13C1064.36 342.38 1063.83 342.23 1063.52 341.94C1063.21 341.65 1063.06 341.13 1063.06 340.4V305.42C1063.06 300.51 1061.87 296.86 1059.49 294.47C1057.11 292.09 1053.39 290.89 1048.33 290.89C1044.95 290.89 1042.1 291.24 1039.76 291.94C1037.42 292.64 1034.99 293.53 1032.45 294.63C1033.98 297.34 1034.75 300.83 1034.75 305.08V340.39C1034.75 341.12 1034.6 341.64 1034.29 341.93C1033.98 342.22 1033.45 342.37 1032.68 342.37H1029.11C1028.34 342.37 1027.8 342.22 1027.5 341.93C1027.19 341.64 1027.04 341.12 1027.04 340.39V305.41C1027.04 295.73 1022.05 290.89 1012.08 290.89C1007.4 290.89 1003.26 291.66 999.661 293.2C998.891 293.57 998.37 293.97 998.11 294.41C997.84 294.85 997.711 295.44 997.711 296.17V340.39C997.711 341.12 997.58 341.64 997.31 341.93C997.04 342.22 996.481 342.37 995.641 342.37H992.07C991.3 342.37 990.771 342.22 990.461 341.93L990.481 341.94Z" fill="#39A2AE"/>
<path d="M1094.71 342C1091.1 340.72 1088.59 338.85 1087.17 336.39C1085.75 333.93 1085.04 330.76 1085.04 326.88C1085.04 322.63 1085.88 319.27 1087.57 316.81C1089.26 314.35 1091.94 312.59 1095.62 311.53C1099.3 310.47 1104.21 309.94 1110.35 309.94C1115.79 309.94 1120.82 310.31 1125.42 311.04V305.87C1125.42 301.1 1124.29 297.4 1122.03 294.76C1119.77 292.12 1115.72 290.8 1109.89 290.8C1102.3 290.8 1096.89 293.44 1093.67 298.72C1093.44 299.09 1093.19 299.4 1092.92 299.65C1092.65 299.91 1092.36 300.04 1092.06 300.04C1091.76 300.04 1091.37 299.93 1090.91 299.71L1088.15 298.61C1087.15 298.32 1086.65 297.8 1086.65 297.07C1086.65 296.7 1086.77 296.26 1087 295.75C1091.29 288.05 1099 284.2 1110.12 284.2C1118.63 284.2 1124.6 286.16 1128.01 290.08C1131.42 294 1133.13 299.3 1133.13 305.97V334.79C1133.13 336.7 1132.84 338.05 1132.27 338.86C1131.69 339.67 1130.6 340.4 1128.99 341.06C1124.39 342.97 1118.02 343.92 1109.89 343.92C1103.37 343.92 1098.31 343.28 1094.7 342H1094.71ZM1096.32 335.07C1098.62 336.87 1102.95 337.77 1109.32 337.77C1115.69 337.77 1120.1 337.18 1123.24 336.01C1124.16 335.64 1124.75 335.28 1125.02 334.91C1125.29 334.54 1125.42 333.85 1125.42 332.82V316.87C1118.52 316.21 1113.23 315.88 1109.54 315.88C1103.4 315.88 1099.09 316.72 1096.6 318.41C1094.11 320.1 1092.86 322.88 1092.86 326.77C1092.86 330.66 1094.01 333.28 1096.31 335.07H1096.32Z" fill="#39A2AE"/>
<path d="M1149.58 268.02C1149.58 266.41 1149.87 265.32 1150.44 264.77C1151.01 264.22 1152.15 263.94 1153.83 263.94H1154.52C1156.21 263.94 1157.34 264.22 1157.91 264.77C1158.48 265.32 1158.77 266.4 1158.77 268.02V268.68C1158.77 270.29 1158.48 271.38 1157.91 271.93C1157.33 272.48 1156.2 272.76 1154.52 272.76H1153.83C1152.14 272.76 1151.01 272.49 1150.44 271.93C1149.86 271.38 1149.58 270.3 1149.58 268.68V268.02ZM1150.73 341.94C1150.42 341.65 1150.27 341.13 1150.27 340.4V287.82C1150.27 287.09 1150.42 286.57 1150.73 286.28C1151.04 285.99 1151.57 285.84 1152.34 285.84H1155.91C1156.75 285.84 1157.31 285.97 1157.58 286.23C1157.85 286.49 1157.98 287.02 1157.98 287.82V340.4C1157.98 341.13 1157.85 341.65 1157.58 341.94C1157.31 342.23 1156.75 342.38 1155.91 342.38H1152.34C1151.57 342.38 1151.03 342.23 1150.73 341.94Z" fill="#39A2AE"/>
<path d="M1176.5 341.94C1176.19 341.65 1176.04 341.13 1176.04 340.4V293.98C1176.04 292.29 1176.33 291.05 1176.9 290.24C1177.48 289.43 1178.64 288.66 1180.41 287.93C1186.78 285.44 1193.91 284.19 1201.81 284.19C1209.71 284.19 1215.31 286.04 1219.07 289.74C1222.83 293.44 1224.71 298.78 1224.71 305.74V340.39C1224.71 341.12 1224.55 341.64 1224.25 341.93C1223.94 342.22 1223.41 342.37 1222.64 342.37H1219.07C1218.3 342.37 1217.77 342.22 1217.46 341.93C1217.15 341.64 1217 341.12 1217 340.39V305.96C1217 300.97 1215.69 297.21 1213.09 294.69C1210.48 292.16 1206.42 290.89 1200.9 290.89C1195.38 290.89 1190.43 291.73 1185.6 293.42C1184.83 293.71 1184.33 294.08 1184.1 294.52C1183.87 294.96 1183.75 295.51 1183.75 296.17V340.39C1183.75 341.12 1183.62 341.64 1183.35 341.93C1183.08 342.22 1182.52 342.37 1181.68 342.37H1178.11C1177.34 342.37 1176.81 342.22 1176.5 341.93V341.94Z" fill="#39A2AE"/>
<path d="M1239.2 330.28C1239.05 329.99 1238.97 329.62 1238.97 329.18C1238.97 328.45 1239.47 327.93 1240.47 327.64L1243.46 326.65L1244.5 326.43C1245.19 326.43 1245.77 326.91 1246.23 327.86C1247.53 331.23 1249.64 333.67 1252.56 335.17C1255.47 336.67 1259.23 337.42 1263.84 337.42C1269.28 337.42 1273.35 336.56 1276.03 334.84C1278.72 333.12 1280.06 330.64 1280.06 327.42C1280.06 324.93 1279.39 323 1278.05 321.64C1276.71 320.28 1274.91 319.31 1272.64 318.72C1270.38 318.13 1267.29 317.66 1263.38 317.29C1258.39 316.85 1254.33 316.21 1251.18 315.37C1248.04 314.53 1245.41 312.95 1243.3 310.64C1241.19 308.33 1240.14 305.01 1240.14 300.68C1240.14 295.55 1242.08 291.51 1245.95 288.58C1249.82 285.65 1255.44 284.18 1262.8 284.18C1274.76 284.18 1282.59 288.18 1286.27 296.17C1286.5 296.61 1286.62 297.01 1286.62 297.38C1286.62 298.11 1286.16 298.66 1285.24 299.03L1282.36 300.24C1281.82 300.46 1281.4 300.57 1281.09 300.57C1280.78 300.57 1280.5 300.44 1280.23 300.19C1279.96 299.93 1279.71 299.62 1279.48 299.25C1278.17 296.46 1276.26 294.36 1273.73 292.92C1271.2 291.49 1267.59 290.78 1262.92 290.78C1257.93 290.78 1254.18 291.61 1251.65 293.25C1249.12 294.9 1247.85 297.3 1247.85 300.46C1247.85 303.17 1248.56 305.23 1249.98 306.62C1251.4 308.01 1253.24 308.97 1255.5 309.48C1257.76 309.99 1261 310.43 1265.22 310.8C1270.05 311.24 1274.04 311.94 1277.18 312.89C1280.32 313.84 1282.84 315.44 1284.72 317.68C1286.6 319.92 1287.54 323.05 1287.54 327.09C1287.54 332.37 1285.56 336.5 1281.61 339.47C1277.66 342.44 1271.77 343.93 1263.95 343.93C1251.14 343.93 1242.9 339.38 1239.21 330.29L1239.2 330.28Z" fill="#39A2AE"/>
<path d="M517.5 333.67C509.06 325.61 504.84 314.03 504.84 298.95V233.13C504.84 229.96 505.47 227.78 506.73 226.57C507.99 225.36 510.28 224.76 513.59 224.76H531.8C535.11 224.76 537.4 225.36 538.66 226.57C539.92 227.78 540.55 229.96 540.55 233.13V297.82C540.55 303.7 542.21 308 545.52 310.71C548.83 313.42 553.88 314.78 560.66 314.78C566.18 314.78 571.38 314.25 576.27 313.2C577.37 312.75 577.93 311.92 577.93 310.71V233.13C577.93 229.96 578.6 227.78 579.94 226.57C581.28 225.36 583.52 224.76 586.68 224.76H605.13C608.28 224.76 610.49 225.36 611.75 226.57C613.01 227.78 613.64 229.96 613.64 233.13V324.51C613.64 328.28 613.05 331.03 611.87 332.77C610.69 334.51 608.2 336.13 604.42 337.63C590.38 343.06 574.22 345.77 555.93 345.77C538.74 345.77 525.93 341.74 517.49 333.67H517.5Z" fill="#F5F5F5"/>
<path d="M649.14 332.09C639.99 322.97 635.42 310.79 635.42 295.56V271.58C635.42 255.29 640.31 242.86 650.09 234.26C659.87 225.67 673.9 221.37 692.2 221.37C704.81 221.37 715.38 223.48 723.9 227.7C732.42 231.92 738.76 237.65 742.94 244.89C747.12 252.13 749.21 260.2 749.21 269.09V282.89C749.21 290.43 745.11 294.2 736.91 294.2H671.15V299.85C671.15 305.88 673 310.37 676.71 313.31C680.41 316.25 685.66 317.72 692.44 317.72C702.69 317.72 710.18 314.71 714.91 308.67C717.28 305.5 719.64 303.92 722.01 303.92C723.9 303.92 726.11 304.6 728.63 305.96L740.22 311.39C744.32 313.5 746.37 315.91 746.37 318.63C746.37 320.59 745.58 322.63 744 324.74C735.01 338.76 717.66 345.77 691.96 345.77C672.56 345.77 658.29 341.21 649.14 332.09ZM713.48 269.55V265.93C713.48 260.2 711.67 255.87 708.04 252.92C704.41 249.98 699.13 248.51 692.19 248.51C685.25 248.51 680.2 249.98 676.58 252.92C672.95 255.86 671.14 260.2 671.14 265.93V269.55H713.48Z" fill="#F5F5F5"/>
<path d="M770.25 195.63V334.01C770.25 337.18 770.88 339.36 772.14 340.57C773.4 341.78 775.69 342.38 779 342.38H797.21C800.52 342.38 802.81 341.78 804.07 340.57C805.33 339.36 805.96 337.18 805.96 334.01V175.01L770.24 195.63H770.25Z" fill="#F5F5F5"/>
<path d="M426.31 340.57C425.05 339.36 424.42 337.18 424.42 334.01V255.07H414.01C410.85 255.07 408.65 254.43 407.39 253.15C406.13 251.87 405.5 249.72 405.5 246.7V233.13C405.5 229.96 406.13 227.78 407.39 226.57C408.65 225.36 410.86 224.76 414.01 224.76H424.42V224.08C424.42 208.1 428.99 195.96 438.14 187.67C447.28 179.38 460.85 175.16 478.83 175H481.67C484.98 175 487.31 175.6 488.65 176.81C489.99 178.02 490.66 180.28 490.66 183.6V196.72C490.66 199.89 489.99 202.11 488.65 203.39C487.31 204.67 484.98 205.31 481.67 205.31C473.94 205.31 468.42 206.78 465.11 209.72C461.8 212.66 460.14 217.45 460.14 224.08V224.76H481.9C485.05 224.76 487.3 225.36 488.64 226.57C489.98 227.78 490.65 229.96 490.65 233.13V246.7C490.65 249.72 489.98 251.87 488.64 253.15C487.3 254.43 485.05 255.07 481.9 255.07H460.14V334.01C460.14 337.18 459.51 339.36 458.25 340.57C456.99 341.78 454.62 342.38 451.15 342.38H433.17C429.86 342.38 427.57 341.78 426.31 340.57Z" fill="#F5F5F5"/>
<path d="M282.38 178.69L189.4 125.01V0L32.52 90.57C12.4 102.19 0 123.66 0 146.9V454.73L189.4 144.91V269.92L314.9 342.38V235.02C314.9 211.78 302.5 190.31 282.38 178.69Z" fill="url(#paint0_linear_11009_30198)"/>
<defs>
<linearGradient id="paint0_linear_11009_30198" x1="0" y1="0" x2="0" y2="454.73" gradientUnits="userSpaceOnUse">
<stop stopColor="#00F48B"/>
<stop offset="0.99" stopColor="#39A2AE"/>
</linearGradient>
</defs>
</svg>
