<svg width="103" height="40" viewBox="0 0 103 40" fill="none" xmlns="http://www.w3.org/2000/svg">
<g clip-path="url(#clip0_15530_24921)">
<path d="M87.0898 32.8856C87.0378 32.8297 87.0117 32.7333 87.0117 32.5954V20.045C87.0117 19.9071 87.0378 19.8107 87.0898 19.7538C87.1419 19.6979 87.2402 19.6699 87.3839 19.6699H88.0502C88.1939 19.6699 88.2912 19.6979 88.3443 19.7538C88.3963 19.8097 88.4224 19.9071 88.4224 20.044V32.5944C88.4224 32.7323 88.3963 32.8287 88.3443 32.8847C88.2922 32.9406 88.1939 32.9685 88.0502 32.9685H87.3839C87.2402 32.9685 87.1419 32.9406 87.0898 32.8847V32.8856Z" fill="#FFC010"/>
<path d="M92.0664 32.8856C92.0143 32.8297 91.9883 32.7333 91.9883 32.5954V20.045C91.9883 19.9081 92.0143 19.8107 92.0664 19.7548C92.1185 19.6989 92.2168 19.6709 92.3605 19.6709H96.5134C98.3155 19.6709 99.7127 20.1116 100.706 20.9919C101.698 21.8722 102.195 23.0804 102.195 24.6164V28.0259C102.195 29.5619 101.698 30.7701 100.706 31.6505C99.7137 32.5308 98.3155 32.9714 96.5134 32.9714H92.3605C92.2168 32.9714 92.1185 32.9435 92.0664 32.8876V32.8856ZM96.5134 31.7141C97.8845 31.7141 98.9355 31.393 99.6674 30.7499C100.398 30.1067 100.765 29.1984 100.765 28.024V24.6145C100.765 23.441 100.399 22.5327 99.6674 21.8886C98.9355 21.2455 97.8845 20.9244 96.5134 20.9244H93.398V31.7141H96.5134Z" fill="#FFC010"/>
</g>
<path d="M48.9472 32.9425C48.1797 32.6735 47.6436 32.2772 47.3389 31.7536C47.0342 31.2301 46.8828 30.5619 46.8828 29.7471C46.8828 28.8455 47.0651 28.1368 47.4305 27.621C47.7959 27.1051 48.3581 26.7377 49.1179 26.5198C49.8777 26.3019 50.9046 26.1929 52.1967 26.1929C52.592 26.1929 53.132 26.2151 53.8156 26.2585V25.7349C53.8156 25.1824 53.6787 24.7717 53.4048 24.5026C53.131 24.2336 52.6826 24.0996 52.0588 24.0996C51.2218 24.0996 50.5912 24.3686 50.166 24.9067C50.0445 25.0812 49.9375 25.2046 49.8468 25.2779C49.7552 25.3512 49.6415 25.3868 49.5045 25.3868C49.3831 25.3868 49.2153 25.3435 49.0031 25.2557L47.7487 24.7755C47.3379 24.6155 47.1325 24.3975 47.1325 24.1208C47.1325 23.9752 47.1856 23.8084 47.2926 23.6194C47.7034 22.8924 48.3147 22.3331 49.1285 21.9397C49.9413 21.5473 50.9567 21.3506 52.1735 21.3506C53.9978 21.3506 55.3015 21.7536 56.0854 22.5607C56.8684 23.3677 57.2598 24.4978 57.2598 25.9519V31.4914C57.2598 31.8693 57.2029 32.1422 57.0892 32.309C56.9754 32.4768 56.7507 32.6253 56.4161 32.7564C55.504 33.1489 54.0673 33.3456 52.1051 33.3456C50.7667 33.3456 49.7138 33.2106 48.9463 32.9425H48.9472ZM50.6462 30.5329C50.8593 30.7219 51.2623 30.8164 51.8553 30.8164C52.6007 30.8164 53.2014 30.7798 53.6575 30.7074C53.7635 30.6785 53.8175 30.6274 53.8175 30.5551V28.7019C52.9507 28.6585 52.3124 28.6363 51.9016 28.6363C51.2932 28.6363 50.8786 28.7308 50.6587 28.9198C50.4379 29.1088 50.328 29.3778 50.328 29.7268C50.328 30.0759 50.4341 30.3449 50.6472 30.5339L50.6462 30.5329Z" fill="#F5F5F5"/>
<path d="M72.7254 32.1355C71.7978 31.3284 71.334 30.2051 71.334 28.7665V25.9529C71.334 24.4988 71.7978 23.3687 72.7254 22.5617C73.653 21.7546 74.998 21.3516 76.7626 21.3516C78.5271 21.3516 79.8954 21.7546 80.8229 22.5617C81.7505 23.3687 82.2143 24.4988 82.2143 25.9529V28.7665C82.2143 30.2205 81.7505 31.3477 80.8229 32.147C79.8954 32.9464 78.5416 33.3465 76.7626 33.3465C74.9836 33.3465 73.653 32.9435 72.7254 32.1364V32.1355ZM75.2796 29.9978C75.6142 30.2813 76.1079 30.423 76.7626 30.423C77.4173 30.423 77.9332 30.2813 78.2677 29.9978C78.6023 29.7143 78.7691 29.3113 78.7691 28.7877V25.9095C78.7691 24.8189 78.1 24.2741 76.7616 24.2741C75.4233 24.2741 74.7772 24.8189 74.7772 25.9095V28.7877C74.7772 29.3113 74.944 29.7143 75.2796 29.9978Z" fill="#F5F5F5"/>
<path d="M70.1237 32.0385L68.1393 28.1999C67.744 27.4584 67.3178 26.9349 66.8617 26.6302L69.9405 22.6392C70.0919 22.4358 70.169 22.2545 70.169 22.0944C70.169 21.8187 69.8952 21.6798 69.3475 21.6798H67.8192C67.3322 21.6798 66.9899 21.7165 66.7923 21.7888C66.5946 21.8621 66.3969 22.0433 66.1993 22.3336L63.645 25.8009H63.0067V16.8809L59.5625 18.8691V32.1899C59.5625 32.51 59.6232 32.7279 59.7447 32.8446C59.8662 32.9613 60.0948 33.0191 60.4293 33.0191H62.1399C62.4745 33.0191 62.702 32.9613 62.8245 32.8446C62.946 32.7279 63.0067 32.51 63.0067 32.1899V28.7225H63.8051C64.185 28.7225 64.4897 28.792 64.7173 28.9298C64.9458 29.0677 65.128 29.2895 65.2649 29.5952L66.4741 32.2776C66.6255 32.5978 66.7932 32.8012 66.9755 32.888C67.1577 32.9757 67.4923 33.0191 67.9792 33.0191H69.5529C69.8267 33.0191 70.0244 32.9902 70.1459 32.9324C70.2674 32.8745 70.3281 32.7723 70.3281 32.6267C70.3281 32.4666 70.2596 32.2709 70.1227 32.0375L70.1237 32.0385Z" fill="#F5F5F5"/>
<path d="M44.0551 22.5187C43.2335 21.7415 42.0022 21.352 40.3601 21.352C39.6457 21.352 38.9302 21.4253 38.2157 21.5699V16.8809L34.7715 18.8691V31.405C34.7715 31.7541 34.8207 32.0009 34.92 32.1465C35.0183 32.2921 35.2507 32.4522 35.6152 32.6267C36.0867 32.8301 36.7019 33.0008 37.4626 33.1397C38.2225 33.2775 39.044 33.347 39.9262 33.347C41.7052 33.347 43.0436 32.9439 43.9403 32.1369C44.8371 31.3298 45.2864 30.1486 45.2864 28.5933V25.8675C45.2864 24.4134 44.8756 23.2978 44.0551 22.5197V22.5187ZM41.8422 28.5924C41.8422 29.2027 41.6715 29.6578 41.3292 29.9558C40.9869 30.2537 40.4585 30.4032 39.744 30.4032C39.151 30.4032 38.6641 30.3453 38.2842 30.2287C38.2388 30.2142 38.2157 30.1776 38.2157 30.1197V24.5368C38.7778 24.3768 39.341 24.2967 39.9031 24.2967C40.526 24.2967 41.0052 24.4317 41.3398 24.6998C41.6744 24.9688 41.8412 25.3651 41.8412 25.8887V28.5933L41.8422 28.5924Z" fill="#F5F5F5"/>
<path d="M0 20.9588L24.2069 33.0123L12.1059 13.9717L0 20.9588Z" fill="url(#paint0_linear_15530_24921)"/>
<path d="M21.0664 17.2298L12.1011 12.0538V0L0 6.98679V20.9594L12.1011 13.9726V26.0264L0 33.0132L12.1011 40L24.2021 33.0132V22.6613C24.2021 20.4204 23.0065 18.3502 21.0664 17.2298Z" fill="#F5F5F5"/>
<defs>
<linearGradient id="paint0_linear_15530_24921" x1="0" y1="13.9717" x2="19.824" y2="36.8158" gradientUnits="userSpaceOnUse">
<stop stop-color="#FFC010"/>
<stop offset="0.48" stop-color="#EBA312"/>
<stop offset="0.71" stop-color="#D38015"/>
<stop offset="0.99" stop-color="#B24F18"/>
</linearGradient>
<clipPath id="clip0_15530_24921">
<rect width="15.1827" height="13.2996" fill="white" transform="translate(87.0117 19.6699)"/>
</clipPath>
</defs>
</svg>
