<svg width="200" height="82" viewBox="0 0 200 82" fill="none" xmlns="http://www.w3.org/2000/svg">
<g clip-path="url(#clip0_12010_20203)">
<path d="M146.651 56.9934C146.58 56.9226 146.545 56.8006 146.545 56.6261V40.7432C146.545 40.5687 146.58 40.4467 146.651 40.3747C146.721 40.3039 146.854 40.2686 147.048 40.2686H147.949C148.143 40.2686 148.275 40.3039 148.347 40.3747C148.417 40.4455 148.452 40.5687 148.452 40.742V56.6249C148.452 56.7994 148.417 56.9214 148.347 56.9922C148.276 57.0629 148.143 57.0983 147.949 57.0983H147.048C146.854 57.0983 146.721 57.0629 146.651 56.9922V56.9934Z" fill="#FFC010"/>
<path d="M153.379 56.9931C153.309 56.9224 153.273 56.8003 153.273 56.6258V40.743C153.273 40.5697 153.309 40.4465 153.379 40.3757C153.449 40.3049 153.582 40.2695 153.777 40.2695H159.392C161.829 40.2695 163.718 40.8272 165.061 41.9413C166.403 43.0554 167.074 44.5844 167.074 46.5282V50.8431C167.074 52.7869 166.403 54.3159 165.061 55.43C163.719 56.5441 161.829 57.1017 159.392 57.1017H153.777C153.582 57.1017 153.449 57.0664 153.379 56.9956V56.9931ZM159.392 55.5105C161.246 55.5105 162.667 55.1042 163.657 54.2903C164.645 53.4764 165.14 52.3269 165.14 50.8406V46.5258C165.14 45.0407 164.646 43.8913 163.657 43.0761C162.667 42.2622 161.246 41.8559 159.392 41.8559H155.18V55.5105H159.392Z" fill="#FFC010"/>
</g>
<path d="M95.0766 57.0654C94.0387 56.725 93.3138 56.2235 92.9018 55.5609C92.4899 54.8983 92.2852 54.0526 92.2852 53.0215C92.2852 51.8806 92.5316 50.9837 93.0257 50.3308C93.5198 49.678 94.2799 49.2131 95.3073 48.9373C96.3347 48.6615 97.7232 48.5236 99.4703 48.5236C100.005 48.5236 100.735 48.5517 101.659 48.6066V47.944C101.659 47.2448 101.474 46.725 101.104 46.3845C100.734 46.0441 100.127 45.8745 99.2839 45.8745C98.1522 45.8745 97.2995 46.2149 96.7245 46.8958C96.5603 47.1167 96.4155 47.2729 96.293 47.3656C96.1691 47.4584 96.0153 47.5035 95.8301 47.5035C95.6659 47.5035 95.439 47.4486 95.1522 47.3375L93.456 46.7299C92.9005 46.5273 92.6228 46.2515 92.6228 45.9013C92.6228 45.717 92.6945 45.5059 92.8393 45.2668C93.3947 44.3467 94.2213 43.6389 95.3217 43.1411C96.4208 42.6444 97.7936 42.3955 99.439 42.3955C101.906 42.3955 103.668 42.9056 104.728 43.9269C105.787 44.9483 106.316 46.3784 106.316 48.2186V55.2289C106.316 55.7073 106.24 56.0526 106.086 56.2637C105.932 56.476 105.628 56.664 105.176 56.8299C103.942 57.3266 102 57.5755 99.3464 57.5755C97.5368 57.5755 96.1131 57.4047 95.0752 57.0654H95.0766ZM97.3738 54.016C97.6619 54.2552 98.2069 54.3748 99.0088 54.3748C100.017 54.3748 100.829 54.3284 101.446 54.2369C101.589 54.2003 101.662 54.1356 101.662 54.0441V51.6987C100.49 51.6438 99.6267 51.6158 99.0713 51.6158C98.2487 51.6158 97.688 51.7354 97.3908 51.9745C97.0922 52.2137 96.9436 52.5541 96.9436 52.9959C96.9436 53.4376 97.087 53.7781 97.3751 54.0172L97.3738 54.016Z" fill="#F5F5F5"/>
<path d="M127.23 56.0438C125.976 55.0225 125.349 53.6009 125.349 51.7803V48.2195C125.349 46.3794 125.976 44.9493 127.23 43.9279C128.484 42.9066 130.303 42.3965 132.689 42.3965C135.075 42.3965 136.925 42.9066 138.179 43.9279C139.433 44.9493 140.061 46.3794 140.061 48.2195V51.7803C140.061 53.6204 139.433 55.0469 138.179 56.0585C136.925 57.0701 135.094 57.5765 132.689 57.5765C130.283 57.5765 128.484 57.0664 127.23 56.0451V56.0438ZM130.684 53.3385C131.136 53.6973 131.804 53.8767 132.689 53.8767C133.574 53.8767 134.272 53.6973 134.724 53.3385C135.177 52.9798 135.402 52.4697 135.402 51.8071V48.1646C135.402 46.7845 134.497 46.0951 132.688 46.0951C130.878 46.0951 130.004 46.7845 130.004 48.1646V51.8071C130.004 52.4697 130.23 52.9798 130.684 53.3385Z" fill="#F5F5F5"/>
<path d="M123.713 55.9207L121.03 51.0629C120.495 50.1245 119.919 49.4619 119.302 49.0763L123.465 44.0257C123.67 43.7682 123.774 43.5388 123.774 43.3362C123.774 42.9872 123.404 42.8115 122.663 42.8115H120.597C119.938 42.8115 119.476 42.8579 119.208 42.9494C118.941 43.0421 118.674 43.2715 118.407 43.6388L114.953 48.0269H114.09V36.7383L109.433 39.2545V56.1123C109.433 56.5174 109.515 56.7932 109.679 56.9408C109.843 57.0885 110.152 57.1617 110.605 57.1617H112.918C113.37 57.1617 113.678 57.0885 113.843 56.9408C114.008 56.7932 114.09 56.5174 114.09 56.1123V51.7243H115.169C115.683 51.7243 116.095 51.8121 116.403 51.9866C116.712 52.1611 116.958 52.4418 117.143 52.8286L118.778 56.2233C118.983 56.6285 119.21 56.8859 119.456 56.9958C119.703 57.1068 120.155 57.1617 120.813 57.1617H122.941C123.311 57.1617 123.579 57.1251 123.743 57.0519C123.907 56.9787 123.989 56.8493 123.989 56.6651C123.989 56.4625 123.897 56.2148 123.712 55.9195L123.713 55.9207Z" fill="#F5F5F5"/>
<path d="M88.463 43.8731C87.3521 42.8896 85.6872 42.3966 83.4669 42.3966C82.5008 42.3966 81.5334 42.4893 80.5673 42.6724V36.7383L75.9102 39.2545V55.119C75.9102 55.5607 75.9767 55.8731 76.1109 56.0574C76.2439 56.2416 76.5581 56.4442 77.051 56.6651C77.6885 56.9225 78.5203 57.1385 79.549 57.3142C80.5764 57.4887 81.6872 57.5766 82.8802 57.5766C85.2856 57.5766 87.0953 57.0665 88.3078 56.0452C89.5203 55.0238 90.1279 53.529 90.1279 51.5607V48.1111C90.1279 46.2709 89.5725 44.8591 88.463 43.8743V43.8731ZM85.4708 51.5595C85.4708 52.3319 85.24 52.9079 84.7772 53.285C84.3143 53.662 83.5999 53.8512 82.6338 53.8512C81.8319 53.8512 81.1735 53.7779 80.6598 53.6303C80.5986 53.612 80.5673 53.5656 80.5673 53.4924V46.4271C81.3274 46.2246 82.0888 46.1233 82.8489 46.1233C83.6911 46.1233 84.3391 46.2941 84.7915 46.6333C85.2439 46.9738 85.4695 47.4753 85.4695 48.1379V51.5607L85.4708 51.5595Z" fill="#F5F5F5"/>
<g clip-path="url(#clip1_12010_20203)">
<path d="M28.8906 41.9L61.6221 57.154L45.2596 33.0576L28.8906 41.9Z" fill="#FFC010"/>
<path d="M57.3756 37.1798L45.2531 30.6294V15.375L28.8906 24.217V41.8997L45.2531 33.0577V48.3122L28.8906 57.1541L45.2531 65.9961L61.6155 57.1541V44.0535C61.6155 41.2176 59.9988 38.5977 57.3756 37.1798Z" fill="#F5F5F5"/>
</g>
<defs>
<clipPath id="clip0_12010_20203">
<rect width="20.5293" height="16.831" fill="white" transform="translate(146.545 40.2686)"/>
</clipPath>
<clipPath id="clip1_12010_20203">
<rect width="86.8318" height="81.2691" fill="white"/>
</clipPath>
</defs>
</svg>
