<svg width="1141" height="886" viewBox="0 0 1141 886" fill="none" xmlns="http://www.w3.org/2000/svg">
<path d="M-0.192383 951.746L20.8001 963.898L146.786 890.997L125.785 878.852L-0.192383 951.746Z" fill="#121212"/>
<path d="M-14.1921 943.647L-35.1846 931.502L90.7932 858.601L111.793 870.753L-14.1921 943.647Z" fill="#121212"/>
<path d="M20.8087 882.898L-105.177 809.997L-84.1766 797.852L41.8012 870.746L20.8087 882.898Z" fill="#121212"/>
<path d="M76.7933 850.501L-49.1845 777.6L-70.1846 789.753L55.8008 862.646L76.7933 850.501Z" fill="#121212"/>
<path d="M-119.177 963.899L-140.169 951.746L-14.1916 878.853L6.80086 890.998L-119.177 963.899Z" fill="#121212"/>
<path d="M419.751 951.746L440.743 963.898L566.729 890.997L545.729 878.852L419.751 951.746Z" fill="#121212"/>
<path d="M405.75 943.647L384.757 931.502L510.735 858.601L531.735 870.753L405.75 943.647Z" fill="#121212"/>
<path d="M335.765 862.647L279.772 830.249L300.765 818.104L356.758 850.501L335.765 862.647Z" fill="#121212"/>
<path d="M440.751 882.898L314.765 809.997L335.765 797.852L461.743 870.746L440.751 882.898Z" fill="#121212"/>
<path d="M496.736 850.501L370.758 777.6L349.758 789.753L475.743 862.646L496.736 850.501Z" fill="#121212"/>
<path d="M209.779 830.249L230.771 842.402L356.757 769.5L335.757 757.348L209.779 830.249Z" fill="#121212"/>
<path d="M195.779 822.15L174.787 809.997L300.764 737.104L321.765 749.249L195.779 822.15Z" fill="#121212"/>
<path d="M300.764 882.898L244.771 850.501L265.772 838.348L321.757 870.753L300.764 882.898Z" fill="#121212"/>
<path d="M139.787 830.249L265.772 903.151L286.764 890.998L160.779 818.104L139.787 830.249Z" fill="#121212"/>
<path d="M104.794 850.501L230.779 923.402L251.772 911.249L125.786 838.348L104.794 850.501Z" fill="#121212"/>
<path d="M265.773 943.647L244.78 931.502L370.758 858.601L391.751 870.746L265.773 943.647Z" fill="#121212"/>
<path d="M300.765 963.899L279.772 951.746L405.75 878.853L426.743 890.998L300.765 963.899Z" fill="#121212"/>
<path d="M125.794 741.15L69.8018 708.752L90.7942 696.6L146.787 728.997L125.794 741.15Z" fill="#121212"/>
<path d="M230.779 761.402L104.794 688.501L125.794 676.348L251.772 749.249L230.779 761.402Z" fill="#121212"/>
<path d="M286.764 728.996L160.787 656.103L139.787 668.248L265.772 741.149L286.764 728.996Z" fill="#121212"/>
<path d="M-0.192383 708.752L20.8001 720.897L146.786 647.996L125.785 635.851L-0.192383 708.752Z" fill="#121212"/>
<path d="M-14.1921 700.653L-35.1846 688.501L90.7932 615.6L111.793 627.752L-14.1921 700.653Z" fill="#121212"/>
<path d="M90.7945 761.401L34.8018 728.997L55.8019 716.852L111.787 749.249L90.7945 761.401Z" fill="#121212"/>
<path d="M-70.1846 708.752L55.8008 781.646L76.7933 769.501L-49.1921 696.6L-70.1846 708.752Z" fill="#121212"/>
<path d="M-105.177 728.997L20.8087 801.898L41.8012 789.753L-84.1843 716.852L-105.177 728.997Z" fill="#121212"/>
<path d="M55.8021 822.15L34.8096 809.997L160.787 737.104L181.78 749.249L55.8021 822.15Z" fill="#121212"/>
<path d="M90.7942 842.402L69.8018 830.249L195.779 757.348L216.772 769.5L90.7942 842.402Z" fill="#121212"/>
<path d="M755.706 862.647L699.713 830.249L720.706 818.104L776.698 850.501L755.706 862.647Z" fill="#121212"/>
<path d="M860.692 882.898L734.706 809.997L755.706 797.852L881.684 870.746L860.692 882.898Z" fill="#121212"/>
<path d="M916.676 850.501L790.698 777.6L769.698 789.753L895.684 862.646L916.676 850.501Z" fill="#121212"/>
<path d="M629.719 830.249L650.712 842.402L776.697 769.5L755.697 757.348L629.719 830.249Z" fill="#121212"/>
<path d="M615.72 822.15L594.727 809.997L720.705 737.104L741.705 749.249L615.72 822.15Z" fill="#121212"/>
<path d="M720.706 882.898L664.713 850.501L685.714 838.348L741.706 870.753L720.706 882.898Z" fill="#121212"/>
<path d="M559.734 830.249L685.712 903.151L706.705 890.998L580.719 818.104L559.734 830.249Z" fill="#121212"/>
<path d="M524.734 850.501L650.72 923.402L671.712 911.249L545.727 838.348L524.734 850.501Z" fill="#121212"/>
<path d="M685.713 943.647L664.721 931.502L790.699 858.601L811.691 870.746L685.713 943.647Z" fill="#121212"/>
<path d="M720.706 963.899L699.713 951.746L825.691 878.853L846.691 890.998L720.706 963.899Z" fill="#121212"/>
<path d="M545.737 741.15L489.744 708.752L510.737 696.6L566.729 728.997L545.737 741.15Z" fill="#121212"/>
<path d="M650.722 761.402L524.736 688.501L545.736 676.348L671.714 749.249L650.722 761.402Z" fill="#121212"/>
<path d="M706.706 728.996L580.729 656.103L559.729 668.248L685.714 741.149L706.706 728.996Z" fill="#121212"/>
<path d="M419.751 708.752L440.743 720.897L566.729 647.996L545.729 635.851L419.751 708.752Z" fill="#121212"/>
<path d="M405.75 700.653L384.757 688.501L510.735 615.6L531.735 627.752L405.75 700.653Z" fill="#121212"/>
<path d="M510.737 761.401L454.744 728.997L475.744 716.852L531.729 749.249L510.737 761.401Z" fill="#121212"/>
<path d="M349.766 708.752L475.743 781.646L496.736 769.501L370.75 696.6L349.766 708.752Z" fill="#121212"/>
<path d="M314.765 728.997L440.751 801.898L461.743 789.753L335.758 716.852L314.765 728.997Z" fill="#121212"/>
<path d="M475.744 822.15L454.751 809.997L580.729 737.104L601.722 749.249L475.744 822.15Z" fill="#121212"/>
<path d="M510.737 842.402L489.744 830.249L615.722 757.348L636.714 769.5L510.737 842.402Z" fill="#121212"/>
<path d="M335.765 619.652L279.772 587.247L300.765 575.102L356.758 607.499L335.765 619.652Z" fill="#121212"/>
<path d="M440.751 639.897L314.765 566.996L335.765 554.851L461.743 627.752L440.751 639.897Z" fill="#121212"/>
<path d="M496.736 607.5L370.758 534.599L349.758 546.751L475.743 619.653L496.736 607.5Z" fill="#121212"/>
<path d="M209.779 587.247L230.771 599.4L356.757 526.499L335.757 514.346L209.779 587.247Z" fill="#121212"/>
<path d="M195.779 579.148L174.787 567.003L300.764 494.102L321.765 506.247L195.779 579.148Z" fill="#121212"/>
<path d="M300.764 639.897L244.771 607.499L265.772 595.354L321.757 627.751L300.764 639.897Z" fill="#121212"/>
<path d="M139.787 587.247L265.772 660.148L286.764 648.003L160.779 575.102L139.787 587.247Z" fill="#121212"/>
<path d="M104.794 607.499L230.779 680.401L251.772 668.248L125.786 595.347L104.794 607.499Z" fill="#121212"/>
<path d="M265.773 700.645L244.78 688.5L370.758 615.599L391.751 627.751L265.773 700.645Z" fill="#121212"/>
<path d="M300.765 720.897L279.772 708.752L405.75 635.851L426.743 647.996L300.765 720.897Z" fill="#121212"/>
<path d="M965.677 741.15L909.685 708.752L930.677 696.6L986.67 728.997L965.677 741.15Z" fill="#121212"/>
<path d="M1070.66 761.402L944.677 688.501L965.677 676.348L1091.65 749.249L1070.66 761.402Z" fill="#121212"/>
<path d="M1126.65 728.996L1000.67 656.103L979.669 668.248L1105.65 741.149L1126.65 728.996Z" fill="#121212"/>
<path d="M839.69 708.752L860.683 720.897L986.668 647.996L965.668 635.851L839.69 708.752Z" fill="#121212"/>
<path d="M825.691 700.653L804.698 688.501L930.676 615.6L951.676 627.752L825.691 700.653Z" fill="#121212"/>
<path d="M930.675 761.401L874.683 728.997L895.683 716.852L951.675 749.249L930.675 761.401Z" fill="#121212"/>
<path d="M769.706 708.752L895.684 781.646L916.676 769.501L790.691 696.6L769.706 708.752Z" fill="#121212"/>
<path d="M734.706 728.997L860.692 801.898L881.684 789.753L755.699 716.852L734.706 728.997Z" fill="#121212"/>
<path d="M895.685 822.15L874.692 809.997L1000.67 737.104L1021.66 749.249L895.685 822.15Z" fill="#121212"/>
<path d="M930.677 842.402L909.685 830.249L1035.66 757.348L1056.66 769.5L930.677 842.402Z" fill="#121212"/>
<path d="M755.706 619.652L699.713 587.247L720.706 575.102L776.698 607.499L755.706 619.652Z" fill="#121212"/>
<path d="M860.692 639.897L734.706 566.996L755.706 554.851L881.684 627.752L860.692 639.897Z" fill="#121212"/>
<path d="M916.676 607.5L790.698 534.599L769.698 546.751L895.684 619.653L916.676 607.5Z" fill="#121212"/>
<path d="M629.719 587.247L650.712 599.4L776.697 526.499L755.697 514.346L629.719 587.247Z" fill="#121212"/>
<path d="M615.72 579.148L594.727 567.003L720.705 494.102L741.705 506.247L615.72 579.148Z" fill="#121212"/>
<path d="M720.706 639.897L664.713 607.499L685.714 595.354L741.706 627.751L720.706 639.897Z" fill="#121212"/>
<path d="M559.734 587.247L685.712 660.148L706.705 648.003L580.719 575.102L559.734 587.247Z" fill="#121212"/>
<path d="M524.734 607.499L650.72 680.401L671.712 668.248L545.727 595.347L524.734 607.499Z" fill="#121212"/>
<path d="M685.713 700.645L664.721 688.5L790.699 615.599L811.691 627.751L685.713 700.645Z" fill="#121212"/>
<path d="M720.706 720.897L699.713 708.752L825.691 635.851L846.691 647.996L720.706 720.897Z" fill="#121212"/>
<path d="M545.737 498.148L489.744 465.751L510.737 453.598L566.729 486.003L545.737 498.148Z" fill="#121212"/>
<path d="M650.722 518.4L524.736 445.499L545.736 433.354L671.714 506.247L650.722 518.4Z" fill="#121212"/>
<path d="M706.706 486.003L580.729 413.102L559.729 425.247L685.714 498.148L706.706 486.003Z" fill="#121212"/>
<path d="M419.751 465.751L440.743 477.896L566.729 405.002L545.729 392.849L419.751 465.751Z" fill="#121212"/>
<path d="M405.75 457.652L384.757 445.499L510.735 372.598L531.735 384.751L405.75 457.652Z" fill="#121212"/>
<path d="M510.737 518.4L454.744 486.003L475.744 473.85L531.729 506.247L510.737 518.4Z" fill="#121212"/>
<path d="M349.766 465.751L475.743 538.652L496.736 526.499L370.75 453.598L349.766 465.751Z" fill="#121212"/>
<path d="M314.765 486.003L440.751 558.896L461.743 546.751L335.758 473.85L314.765 486.003Z" fill="#121212"/>
<path d="M475.744 579.148L454.751 567.003L580.729 494.102L601.722 506.247L475.744 579.148Z" fill="#121212"/>
<path d="M510.737 599.4L489.744 587.247L615.722 514.354L636.714 526.499L510.737 599.4Z" fill="#121212"/>
<path d="M335.765 376.651L279.772 344.246L300.765 332.101L356.758 364.498L335.765 376.651Z" fill="#121212"/>
<path d="M440.751 396.896L314.765 324.002L335.765 311.849L461.743 384.751L440.751 396.896Z" fill="#121212"/>
<path d="M496.736 364.499L370.758 291.597L349.758 303.75L475.743 376.651L496.736 364.499Z" fill="#121212"/>
<path d="M209.779 344.246L230.771 356.398L356.757 283.497L335.757 271.352L209.779 344.246Z" fill="#121212"/>
<path d="M195.779 336.147L174.787 324.002L300.764 251.101L321.765 263.254L195.779 336.147Z" fill="#121212"/>
<path d="M300.764 396.903L244.771 364.498L265.772 352.353L321.757 384.75L300.764 396.903Z" fill="#121212"/>
<path d="M139.787 344.246L265.772 417.147L286.764 405.002L160.779 332.101L139.787 344.246Z" fill="#121212"/>
<path d="M104.794 364.498L230.779 437.399L251.772 425.246L125.786 352.353L104.794 364.498Z" fill="#121212"/>
<path d="M265.773 457.652L244.78 445.499L370.758 372.605L391.751 384.751L265.773 457.652Z" fill="#121212"/>
<path d="M300.765 477.896L279.772 465.751L405.75 392.849L426.743 405.002L300.765 477.896Z" fill="#121212"/>
<path d="M125.794 255.147L69.8018 222.75L90.7942 210.605L146.787 243.002L125.794 255.147Z" fill="#121212"/>
<path d="M230.779 275.398L104.794 202.497L125.794 190.352L251.772 263.246L230.779 275.398Z" fill="#121212"/>
<path d="M286.764 243.001L160.787 170.1L139.787 182.253L265.772 255.146L286.764 243.001Z" fill="#121212"/>
<path d="M-0.192383 222.749L20.8001 234.902L146.786 162.001L125.785 149.848L-0.192383 222.749Z" fill="#121212"/>
<path d="M-14.1921 214.651L-35.1846 202.498L90.7932 129.604L111.793 141.749L-14.1921 214.651Z" fill="#121212"/>
<path d="M90.7945 275.399L34.8018 243.002L55.8019 230.849L111.787 263.254L90.7945 275.399Z" fill="#121212"/>
<path d="M-70.1846 222.75L55.8008 295.651L76.7933 283.506L-49.1921 210.605L-70.1846 222.75Z" fill="#121212"/>
<path d="M-105.177 243.002L20.8087 315.903L41.8012 303.75L-84.1843 230.849L-105.177 243.002Z" fill="#121212"/>
<path d="M55.8021 336.147L34.8096 324.002L160.787 251.101L181.78 263.246L55.8021 336.147Z" fill="#121212"/>
<path d="M90.7942 356.398L69.8018 344.246L195.779 271.352L216.772 283.497L90.7942 356.398Z" fill="#121212"/>
<path d="M20.8087 153.902L-105.177 81.0009L-84.1766 68.8481L41.8012 141.749L20.8087 153.902Z" fill="#121212"/>
<path d="M76.7933 121.497L-49.1845 48.6035L-70.1846 60.7486L55.8008 133.65L76.7933 121.497Z" fill="#121212"/>
<path d="M-119.177 234.902L-140.169 222.749L-14.1916 149.848L6.80086 162.001L-119.177 234.902Z" fill="#121212"/>
<path d="M20.8097 639.897L-105.176 566.996L-84.1757 554.851L41.8022 627.752L20.8097 639.897Z" fill="#121212"/>
<path d="M76.7952 607.5L-49.1825 534.599L-70.1826 546.751L55.8027 619.653L76.7952 607.5Z" fill="#121212"/>
<path d="M-119.175 720.897L-140.168 708.752L-14.1902 635.851L6.80232 647.996L-119.175 720.897Z" fill="#121212"/>
<path d="M125.794 498.148L69.8018 465.751L90.7942 453.598L146.787 486.003L125.794 498.148Z" fill="#121212"/>
<path d="M230.779 518.4L104.794 445.499L125.794 433.354L251.772 506.247L230.779 518.4Z" fill="#121212"/>
<path d="M286.764 486.003L160.787 413.102L139.787 425.247L265.772 498.148L286.764 486.003Z" fill="#121212"/>
<path d="M-0.192383 465.751L20.8001 477.896L146.786 405.002L125.785 392.849L-0.192383 465.751Z" fill="#121212"/>
<path d="M-14.1921 457.652L-35.1846 445.499L90.7932 372.598L111.793 384.751L-14.1921 457.652Z" fill="#121212"/>
<path d="M90.7945 518.4L34.8018 486.003L55.8019 473.85L111.787 506.247L90.7945 518.4Z" fill="#121212"/>
<path d="M-70.1846 465.751L55.8008 538.652L76.7933 526.499L-49.1921 453.598L-70.1846 465.751Z" fill="#121212"/>
<path d="M-105.177 486.003L20.8087 558.896L41.8012 546.751L-84.1843 473.85L-105.177 486.003Z" fill="#121212"/>
<path d="M55.8021 579.148L34.8096 567.003L160.787 494.102L181.78 506.247L55.8021 579.148Z" fill="#121212"/>
<path d="M90.7942 599.4L69.8018 587.247L195.779 514.354L216.772 526.499L90.7942 599.4Z" fill="#121212"/>
<path d="M20.8097 396.896L-105.176 324.002L-84.1757 311.849L41.8022 384.751L20.8097 396.896Z" fill="#121212"/>
<path d="M76.7952 364.499L-49.1825 291.597L-70.1826 303.75L55.8027 376.651L76.7952 364.499Z" fill="#121212"/>
<path d="M-119.175 477.896L-140.168 465.751L-14.1902 392.849L6.80232 405.002L-119.175 477.896Z" fill="#121212"/>
</svg>
