<svg width="2234" height="858" viewBox="0 0 2234 858" fill="none" xmlns="http://www.w3.org/2000/svg">
<g clip-path="url(#clip0_28223_57008)">
<path d="M1117 0.197266L0.21875 266.53V857.335H2233.78V266.53L1117 0.197266ZM444.162 433.417H310.554V405.067C310.554 401.93 308.967 400.342 305.829 400.342H274.116C270.978 400.342 269.39 401.93 269.39 405.067V618.281C269.39 621.419 270.978 623.006 274.116 623.006H307.195L310.554 619.647V537.292H290.988L310.554 486.721H444.162V723.559H202.568C180.085 723.559 163.324 719.499 152.285 711.415C141.247 703.331 135.746 690.743 135.746 673.615V372.694L444.125 299.162V433.417H444.162ZM788.314 723.522H654.707V565.642L651.347 562.283H616.939L613.58 565.642V723.522H479.972V350.398C479.972 316.216 502.234 299.125 546.795 299.125H721.566C766.089 299.125 788.388 316.216 788.388 350.398V723.522H788.314ZM1130.44 723.522H996.829V555.528C996.829 552.39 995.242 550.803 992.104 550.803H959.025L955.665 554.162V723.522H822.058V299.125H1063.65C1107.73 299.125 1129.77 316.216 1129.77 350.398V475.905C1129.77 494.362 1119.21 504.919 1098.06 507.614V514.369C1109.28 516.178 1117.52 519.648 1122.68 524.816C1127.85 529.984 1130.44 537.292 1130.44 546.742V723.522ZM1472.56 723.522H1338.95V565.642L1335.59 562.283H1301.18L1297.82 565.642V723.522H1164.22V350.398C1164.22 316.216 1186.48 299.125 1231.04 299.125H1405.81C1450.33 299.125 1472.63 316.216 1472.63 350.398V723.522H1472.56ZM1814.64 433.417H1681.04V405.067C1681.04 401.93 1679.45 400.342 1676.31 400.342H1644.6C1641.46 400.342 1639.87 401.93 1639.87 405.067V618.281C1639.87 621.419 1641.46 623.006 1644.6 623.006H1677.68L1681.04 619.647V537.292H1661.47L1681.04 486.721H1814.64V723.559H1573.05C1550.57 723.559 1533.81 719.499 1522.77 711.415C1511.73 703.331 1506.23 690.743 1506.23 673.615V350.435C1506.23 316.253 1528.49 299.162 1573.05 299.162H1747.82C1792.35 299.162 1814.64 316.253 1814.64 350.435V433.417ZM2102.13 723.522H1850.42V312.635L2101.43 372.509V400.342H1987.38L1984.03 403.702V457.669L1987.38 461.029H2100.1V562.246H1987.38L1984.03 565.605V619.573L1987.38 622.932H2102.09V723.449L2102.13 723.522Z" fill="#B3FF2E"/>
<path d="M1334.19 400.343H1302.48C1299.34 400.343 1297.75 401.93 1297.75 405.068V457.707L1301.11 461.066H1335.52L1338.88 457.707V405.068C1338.88 401.93 1337.29 400.343 1334.15 400.343H1334.19Z" fill="#B3FF2E"/>
<path d="M992.105 400.343H959.026L955.666 403.702V468.485L959.026 471.845H992.105C995.243 471.845 996.83 470.257 996.83 467.12V405.031C996.83 401.893 995.243 400.306 992.105 400.306V400.343Z" fill="#B3FF2E"/>
<path d="M649.981 400.343H618.269C615.13 400.343 613.543 401.93 613.543 405.068V457.707L616.902 461.066H651.31L654.67 457.707V405.068C654.67 401.93 653.083 400.343 649.944 400.343H649.981Z" fill="#B3FF2E"/>
</g>
<defs>
<clipPath id="clip0_28223_57008">
<rect width="2233.56" height="857.138" fill="white" transform="translate(0.21875 0.197266)"/>
</clipPath>
</defs>
</svg>
